<svg width="216" height="148" viewBox="0 0 216 148" fill="none" xmlns="http://www.w3.org/2000/svg">
<path d="M214.237 2.25258C214.377 1.71821 214.057 1.17192 213.522 1.03243C212.988 0.892934 212.442 1.21305 212.302 1.74743L214.237 2.25258ZM156.588 108.321L155.961 107.543L156.588 108.321ZM1.4027 130.156C0.959792 130.486 0.868224 131.112 1.19817 131.555L6.5748 138.773C6.90473 139.216 7.53123 139.307 7.97414 138.977C8.41704 138.647 8.50861 138.021 8.17868 137.578L3.39944 131.163L9.81497 126.383C10.2579 126.053 10.3494 125.427 10.0195 124.984C9.68957 124.541 9.06307 124.449 8.62016 124.779L1.4027 130.156ZM210.206 9.04018C210.046 9.56876 210.345 10.127 210.874 10.2871C211.402 10.4472 211.961 10.1484 212.121 9.61984L210.206 9.04018ZM207.372 24.1586C207.554 23.6373 207.279 23.0669 206.758 22.8847C206.237 22.7024 205.666 22.9773 205.484 23.4987L207.372 24.1586ZM200.172 37.7508C199.968 38.2641 200.219 38.8454 200.732 39.0492C201.246 39.253 201.827 39.002 202.031 38.4887L200.172 37.7508ZM196.055 52.5942C196.282 52.091 196.059 51.4986 195.556 51.2709C195.053 51.0433 194.46 51.2667 194.233 51.7698L196.055 52.5942ZM187.588 65.4482C187.333 65.9377 187.522 66.5418 188.012 66.7976C188.501 67.0534 189.105 66.864 189.361 66.3745L187.588 65.4482ZM181.794 79.708C182.085 79.2384 181.939 78.6221 181.47 78.3315C181 78.0409 180.384 78.186 180.093 78.6557L181.794 79.708ZM171.527 91.1621C171.192 91.6009 171.275 92.2285 171.714 92.5638C172.153 92.8992 172.781 92.8153 173.116 92.3765L171.527 91.1621ZM162.972 103.962C163.366 103.576 163.372 102.943 162.986 102.548C162.599 102.154 161.966 102.148 161.571 102.534L162.972 103.962ZM150.672 111.423C150.212 111.73 150.089 112.351 150.396 112.81C150.703 113.27 151.324 113.393 151.783 113.086L150.672 111.423ZM140.069 119.68C140.568 119.444 140.781 118.847 140.545 118.348C140.308 117.849 139.712 117.636 139.213 117.873L140.069 119.68ZM126.978 122.814C126.455 122.993 126.177 123.562 126.356 124.084C126.535 124.607 127.103 124.885 127.626 124.706L126.978 122.814ZM114.765 128.469C115.301 128.336 115.628 127.794 115.495 127.258C115.362 126.722 114.82 126.395 114.284 126.527L114.765 128.469ZM101.321 129.244C100.777 129.34 100.413 129.858 100.508 130.402C100.603 130.946 101.121 131.31 101.665 131.215L101.321 129.244ZM88.4317 133.131C88.9803 133.066 89.373 132.57 89.309 132.021C89.2449 131.473 88.7483 131.08 88.1997 131.144L88.4317 133.131ZM74.9893 132.36C74.4383 132.397 74.0223 132.875 74.0601 133.426C74.098 133.977 74.5753 134.393 75.1263 134.355L74.9893 132.36ZM61.7917 134.99C62.3438 134.975 62.779 134.515 62.7638 133.963C62.7486 133.411 62.2888 132.975 61.7367 132.991L61.7917 134.99ZM48.4492 133.11C47.8969 133.105 47.4452 133.549 47.4403 134.101C47.4354 134.653 47.8791 135.105 48.4313 135.11L48.4492 133.11ZM35.075 134.765C35.6268 134.788 36.0931 134.36 36.1164 133.808C36.1398 133.256 35.7114 132.79 35.1596 132.767L35.075 134.765ZM21.8908 131.99C21.3401 131.949 20.8602 132.362 20.8191 132.913C20.7779 133.463 21.191 133.943 21.7417 133.985L21.8908 131.99ZM8.45156 132.762C9.0005 132.823 9.49473 132.427 9.55547 131.878C9.6162 131.329 9.22043 130.835 8.6715 130.774L8.45156 132.762ZM213.27 2.00001C212.302 1.74743 212.302 1.74741 212.302 1.7474C212.302 1.74741 212.302 1.74741 212.302 1.74743C212.302 1.74747 212.302 1.74755 212.302 1.74768C212.302 1.74792 212.302 1.74834 212.302 1.74891C212.301 1.75007 212.301 1.75189 212.3 1.75436C212.299 1.75931 212.297 1.76689 212.294 1.77706C212.289 1.79743 212.281 1.82819 212.27 1.86918C212.248 1.95114 212.215 2.07395 212.172 2.23598C212.084 2.56005 211.952 3.04102 211.777 3.66599C211.427 4.91595 210.903 6.74175 210.206 9.04018L212.121 9.61984C212.821 7.30708 213.349 5.46788 213.703 4.20563C213.88 3.5745 214.013 3.08757 214.102 2.75776C214.147 2.59286 214.18 2.46723 214.203 2.38249C214.214 2.34013 214.223 2.30798 214.228 2.28626C214.231 2.27541 214.233 2.26715 214.235 2.26153C214.236 2.25872 214.236 2.25657 214.237 2.25507C214.237 2.25433 214.237 2.25375 214.237 2.25333C214.237 2.25312 214.237 2.25296 214.237 2.25283C214.237 2.25277 214.237 2.25271 214.237 2.25268C214.237 2.25262 214.237 2.25258 213.27 2.00001ZM205.484 23.4987C203.961 27.8559 202.189 32.6697 200.172 37.7508L202.031 38.4887C204.059 33.3787 205.841 28.5387 207.372 24.1586L205.484 23.4987ZM194.233 51.7698C192.184 56.298 189.968 60.8944 187.588 65.4482L189.361 66.3745C191.76 61.7832 193.993 57.1524 196.055 52.5942L194.233 51.7698ZM180.093 78.6557C177.395 83.0159 174.539 87.2213 171.527 91.1621L173.116 92.3765C176.173 88.3759 179.067 84.1153 181.794 79.708L180.093 78.6557ZM161.571 102.534C159.745 104.325 157.875 106.001 155.961 107.543L157.216 109.1C159.185 107.513 161.103 105.794 162.972 103.962L161.571 102.534ZM155.961 107.543C154.273 108.903 152.507 110.196 150.672 111.423L151.783 113.086C153.666 111.827 155.479 110.5 157.216 109.1L155.961 107.543ZM139.213 117.873C135.311 119.722 131.216 121.362 126.978 122.814L127.626 124.706C131.927 123.233 136.093 121.565 140.069 119.68L139.213 117.873ZM114.284 126.527C110.032 127.58 105.696 128.479 101.321 129.244L101.665 131.215C106.082 130.442 110.463 129.533 114.765 128.469L114.284 126.527ZM88.1997 131.144C83.7756 131.661 79.3572 132.06 74.9893 132.36L75.1263 134.355C79.523 134.053 83.9732 133.651 88.4317 133.131L88.1997 131.144ZM61.7367 132.991C57.1749 133.116 52.7268 133.148 48.4492 133.11L48.4313 135.11C52.7311 135.148 57.2036 135.116 61.7917 134.99L61.7367 132.991ZM35.1596 132.767C30.3305 132.562 25.8699 132.288 21.8908 131.99L21.7417 133.985C25.7402 134.283 30.2224 134.559 35.075 134.765L35.1596 132.767ZM8.6715 130.774C6.58237 130.543 4.94817 130.341 3.83747 130.197C3.28213 130.126 2.85768 130.068 2.57269 130.029C2.4302 130.009 2.32257 129.994 2.25089 129.984C2.21504 129.979 2.1882 129.975 2.17046 129.972C2.16158 129.971 2.15499 129.97 2.1507 129.969C2.14856 129.969 2.14699 129.969 2.14599 129.969C2.14549 129.969 2.14514 129.969 2.14493 129.969C2.14483 129.969 2.14475 129.969 2.14471 129.969C2.14471 129.968 2.14471 129.968 2.14469 129.968C2.14471 129.968 2.14473 129.969 2.0001 130.958C1.85547 131.947 1.85551 131.947 1.85555 131.947C1.85559 131.947 1.85565 131.947 1.8557 131.948C1.85581 131.948 1.85596 131.948 1.85614 131.948C1.85651 131.948 1.85702 131.948 1.85769 131.948C1.859 131.948 1.86089 131.948 1.86336 131.949C1.86828 131.949 1.87552 131.95 1.88503 131.952C1.90406 131.954 1.93221 131.959 1.96937 131.964C2.04366 131.974 2.15394 131.99 2.29913 132.01C2.58952 132.05 3.01955 132.108 3.58064 132.181C4.70281 132.326 6.34934 132.529 8.45156 132.762L8.6715 130.774ZM215.205 2.50516C215.484 1.4364 214.844 0.34384 213.775 0.0648507C212.706 -0.214135 211.614 0.426097 211.335 1.49485L215.205 2.50516ZM156.588 108.321L155.333 106.764L156.588 108.321ZM0.805291 129.354C-0.0805021 130.014 -0.263654 131.267 0.396218 132.153L11.1495 146.588C11.8093 147.474 13.0624 147.657 13.9482 146.997C14.834 146.337 15.0171 145.084 14.3572 144.198L4.79879 131.367L17.6298 121.809C18.5156 121.149 18.6988 119.896 18.0389 119.01C17.379 118.124 16.126 117.941 15.2402 118.601L0.805291 129.354ZM209.249 8.75035C208.929 9.80751 209.527 10.924 210.584 11.2442C211.641 11.5643 212.758 10.9668 213.078 9.90967L209.249 8.75035ZM208.316 24.4886C208.681 23.4459 208.131 22.3052 207.088 21.9407C206.045 21.5762 204.905 22.126 204.54 23.1687L208.316 24.4886ZM199.242 37.3819C198.835 38.4085 199.337 39.5712 200.363 39.9787C201.39 40.3862 202.553 39.8842 202.96 38.8576L199.242 37.3819ZM196.966 53.0064C197.421 52 196.974 50.8151 195.968 50.3598C194.962 49.9045 193.777 50.3513 193.321 51.3577L196.966 53.0064ZM186.702 64.985C186.191 65.964 186.569 67.1723 187.548 67.6839C188.527 68.1955 189.736 67.8167 190.247 66.8377L186.702 64.985ZM182.644 80.2342C183.226 79.2949 182.935 78.0623 181.996 77.4811C181.057 76.8999 179.824 77.1902 179.243 78.1295L182.644 80.2342ZM170.732 90.5549C170.062 91.4325 170.229 92.6877 171.107 93.3584C171.985 94.0291 173.24 93.8614 173.911 92.9837L170.732 90.5549ZM163.672 104.676C164.46 103.903 164.473 102.637 163.7 101.848C162.926 101.059 161.66 101.047 160.871 101.82L163.672 104.676ZM150.116 110.592C149.197 111.206 148.951 112.448 149.565 113.366C150.179 114.284 151.421 114.531 152.339 113.917L150.116 110.592ZM140.497 120.584C141.496 120.111 141.921 118.918 141.448 117.92C140.975 116.922 139.783 116.496 138.784 116.969L140.497 120.584ZM126.654 121.868C125.609 122.226 125.052 123.363 125.41 124.408C125.768 125.453 126.905 126.01 127.95 125.652L126.654 121.868ZM115.005 129.439C116.077 129.174 116.731 128.09 116.466 127.017C116.2 125.945 115.116 125.291 114.044 125.557L115.005 129.439ZM101.149 128.259C100.061 128.45 99.3328 129.486 99.5231 130.574C99.7133 131.662 100.75 132.39 101.838 132.2L101.149 128.259ZM88.5477 134.124C89.6448 133.996 90.4303 133.002 90.3022 131.905C90.1741 130.808 89.1808 130.023 88.0837 130.151L88.5477 134.124ZM74.9207 131.362C73.8188 131.438 72.9868 132.392 73.0625 133.494C73.1381 134.596 74.0928 135.428 75.1948 135.353L74.9207 131.362ZM61.8192 135.989C62.9234 135.959 63.7938 135.039 63.7635 133.935C63.7331 132.831 62.8134 131.961 61.7092 131.991L61.8192 135.989ZM48.4581 132.11C47.3536 132.1 46.4502 132.987 46.4403 134.092C46.4305 135.196 47.3179 136.1 48.4224 136.11L48.4581 132.11ZM35.0327 135.764C36.1363 135.811 37.0688 134.954 37.1155 133.85C37.1623 132.747 36.3055 131.814 35.202 131.768L35.0327 135.764ZM21.9654 130.993C20.8639 130.911 19.9042 131.737 19.8218 132.838C19.7395 133.94 20.5657 134.899 21.6671 134.982L21.9654 130.993ZM8.34161 133.756C9.43948 133.877 10.4279 133.086 10.5494 131.988C10.6709 130.89 9.87932 129.902 8.78145 129.78L8.34161 133.756ZM213.27 2.00001C211.335 1.49485 211.335 1.4948 211.335 1.49476C211.335 1.49476 211.335 1.49473 211.335 1.49473C211.335 1.49473 211.335 1.49477 211.335 1.49485C211.334 1.49501 211.334 1.49534 211.334 1.49584C211.334 1.49683 211.334 1.49848 211.333 1.50078C211.332 1.50539 211.33 1.51263 211.327 1.52247C211.322 1.54215 211.314 1.57223 211.303 1.61252C211.282 1.6931 211.25 1.81449 211.206 1.97509C211.119 2.29629 210.989 2.77429 210.814 3.39617C210.466 4.63998 209.943 6.45909 209.249 8.75035L213.078 9.90967C213.78 7.58974 214.311 5.74385 214.666 4.47546C214.844 3.84124 214.978 3.35132 215.068 3.01865C215.113 2.85231 215.147 2.72527 215.169 2.63915C215.181 2.5961 215.19 2.56326 215.195 2.54086C215.198 2.52966 215.201 2.52107 215.202 2.51511C215.203 2.51213 215.204 2.50981 215.204 2.50815C215.204 2.50732 215.204 2.50666 215.205 2.50616C215.205 2.50591 215.205 2.5057 215.205 2.50553C215.205 2.50545 215.205 2.50536 215.205 2.50531C215.205 2.50523 215.205 2.50516 213.27 2.00001ZM204.54 23.1687C203.021 27.5145 201.253 32.3152 199.242 37.3819L202.96 38.8576C204.994 33.7332 206.781 28.8801 208.316 24.4886L204.54 23.1687ZM193.321 51.3577C191.28 55.8708 189.072 60.4501 186.702 64.985L190.247 66.8377C192.657 62.2276 194.897 57.5795 196.966 53.0064L193.321 51.3577ZM179.243 78.1295C176.559 82.4663 173.721 86.644 170.732 90.5549L173.911 92.9837C176.991 88.9532 179.903 84.665 182.644 80.2342L179.243 78.1295ZM160.871 101.82C159.066 103.591 157.22 105.244 155.333 106.764L157.844 109.879C159.84 108.27 161.782 106.529 163.672 104.676L160.871 101.82ZM155.333 106.764C153.67 108.105 151.928 109.38 150.116 110.592L152.339 113.917C154.245 112.643 156.083 111.298 157.844 109.879L155.333 106.764ZM138.784 116.969C134.921 118.8 130.861 120.427 126.654 121.868L127.95 125.652C132.283 124.168 136.483 122.486 140.497 120.584L138.784 116.969ZM114.044 125.557C109.816 126.603 105.503 127.498 101.149 128.259L101.838 132.2C106.274 131.424 110.678 130.51 115.005 129.439L114.044 125.557ZM88.0837 130.151C83.6767 130.665 79.2743 131.063 74.9207 131.362L75.1948 135.353C79.6059 135.05 84.072 134.646 88.5477 134.124L88.0837 130.151ZM61.7092 131.991C57.1605 132.116 52.7246 132.148 48.4581 132.11L48.4224 136.11C52.7333 136.148 57.2179 136.116 61.8192 135.989L61.7092 131.991ZM35.202 131.768C30.3845 131.564 25.9347 131.29 21.9654 130.993L21.6671 134.982C25.6753 135.281 30.1683 135.558 35.0327 135.764L35.202 131.768ZM8.78145 129.78C6.69888 129.55 5.07085 129.349 3.96589 129.206C3.41342 129.134 2.99176 129.077 2.70947 129.038C2.56833 129.019 2.46203 129.004 2.39165 128.994C2.35647 128.989 2.33026 128.985 2.31317 128.982C2.30462 128.981 2.29835 128.98 2.29438 128.98C2.29239 128.979 2.29097 128.979 2.29015 128.979C2.28972 128.979 2.28944 128.979 2.28932 128.979C2.28925 128.979 2.28922 128.979 2.28923 128.979C2.28923 128.979 2.28926 128.979 2.28926 128.979C2.2893 128.979 2.28936 128.979 2.0001 130.958C1.71084 132.937 1.71092 132.937 1.71099 132.937C1.71102 132.937 1.71111 132.937 1.71119 132.937C1.71133 132.937 1.71153 132.937 1.71175 132.937C1.7122 132.937 1.71279 132.937 1.71353 132.937C1.715 132.938 1.71706 132.938 1.71967 132.938C1.72493 132.939 1.73248 132.94 1.74232 132.942C1.76198 132.944 1.79079 132.948 1.8286 132.954C1.9042 132.965 2.01582 132.98 2.16235 133.001C2.45543 133.041 2.88825 133.1 3.45222 133.173C4.58013 133.319 6.23281 133.523 8.34161 133.756L8.78145 129.78Z" fill="#1B4CFB"/>
</svg>
