<svg width="24" height="24" viewBox="0 0 24 24" fill="none" xmlns="http://www.w3.org/2000/svg">
<path d="M10.591 2.51305C11.4946 2.14669 12.5054 2.14669 13.409 2.51305L20.907 5.55305C21.23 5.68387 21.5065 5.90813 21.7013 6.1971C21.896 6.48607 22 6.8266 22 7.17505V12.8101C21.5536 12.3817 21.0486 12.0191 20.5 11.7331V7.77305L12.75 10.7651V13.0631C12.0477 13.8135 11.5336 14.7201 11.25 15.7081V10.7641L3.5 7.75005V16.8281C3.50013 16.8777 3.51504 16.9262 3.54282 16.9673C3.5706 17.0084 3.61 17.0404 3.656 17.0591L11.155 20.0991C11.186 20.1121 11.218 20.1241 11.25 20.1351L11.439 20.2111C11.498 20.2351 11.557 20.2551 11.618 20.2711C11.866 20.7971 12.183 21.2851 12.558 21.7221C11.8933 21.8221 11.2139 21.7416 10.591 21.4891L3.093 18.4491C2.77003 18.3182 2.49347 18.094 2.29875 17.805C2.10402 17.516 2 17.1755 2 16.8271V7.17605C2 6.8276 2.10402 6.48707 2.29875 6.1981C2.49347 5.90913 2.77003 5.68487 3.093 5.55405L10.591 2.51305ZM12.845 3.90305C12.3031 3.68345 11.6969 3.68345 11.155 3.90305L9.24 4.68005L16.767 7.60705L19.437 6.57705L12.844 3.90405L12.845 3.90305ZM4.59 6.56405L12.001 9.44705L14.691 8.40705L7.216 5.50005L4.59 6.56405ZM17.5 23.0011C18.9587 23.0011 20.3576 22.4216 21.3891 21.3901C22.4205 20.3587 23 18.9597 23 17.5011C23 16.0424 22.4205 14.6434 21.3891 13.612C20.3576 12.5805 18.9587 12.0011 17.5 12.0011C16.0413 12.0011 14.6424 12.5805 13.6109 13.612C12.5795 14.6434 12 16.0424 12 17.5011C12 18.9597 12.5795 20.3587 13.6109 21.3901C14.6424 22.4216 16.0413 23.0011 17.5 23.0011ZM16.5 18.7941L20.146 15.1471C20.2398 15.0532 20.367 15.0004 20.4996 15.0003C20.6323 15.0002 20.7596 15.0528 20.8535 15.1466C20.9474 15.2403 21.0002 15.3675 21.0003 15.5002C21.0004 15.6329 20.9478 15.7602 20.854 15.8541L16.854 19.8541C16.8076 19.9006 16.7524 19.9376 16.6916 19.9628C16.6309 19.988 16.5658 20.0009 16.5 20.0009C16.4342 20.0009 16.3691 19.988 16.3084 19.9628C16.2476 19.9376 16.1924 19.9006 16.146 19.8541L14.146 17.8541C14.0996 17.8076 14.0628 17.7524 14.0377 17.6917C14.0126 17.631 13.9997 17.5659 13.9997 17.5002C13.9998 17.4345 14.0128 17.3695 14.0379 17.3088C14.0631 17.2481 14.1 17.193 14.1465 17.1466C14.193 17.1001 14.2482 17.0633 14.3089 17.0382C14.3696 17.0131 14.4347 17.0002 14.5004 17.0003C14.5661 17.0003 14.6311 17.0133 14.6918 17.0385C14.7525 17.0637 14.8076 17.1006 14.854 17.1471L16.5 18.7941Z" fill="#1B4CFB"/>
</svg>
