<svg width="18" height="19" viewBox="0 0 18 19" fill="none" xmlns="http://www.w3.org/2000/svg">
<path d="M9 5.67875V6.80375C7.98375 6.80375 6.97725 6.84575 5.982 6.92825C5.13375 6.99875 4.5 7.721 4.5 8.57225V10.457M9 6.8045C10.0163 6.8045 11.0228 6.84575 12.018 6.92825C12.8663 6.99875 13.5 7.721 13.5 8.57225V10.457M11.25 6.8045V5.6795M6.75 6.8045V5.6795M15.75 12.992L14.625 13.5545C14.2757 13.7292 13.8905 13.8201 13.5 13.8201C13.1095 13.8201 12.7243 13.7292 12.375 13.5545C12.0257 13.3798 11.6405 13.2889 11.25 13.2889C10.8595 13.2889 10.4743 13.3798 10.125 13.5545C9.7757 13.7292 9.39053 13.8201 9 13.8201C8.60947 13.8201 8.2243 13.7292 7.875 13.5545C7.5257 13.3798 7.14053 13.2889 6.75 13.2889C6.35947 13.2889 5.9743 13.3798 5.625 13.5545C5.2757 13.7292 4.89053 13.8201 4.5 13.8201C4.10947 13.8201 3.7243 13.7292 3.375 13.5545L2.25 12.9912M13.5 10.4562C12.0072 10.2707 10.5043 10.1781 9 10.1787C7.476 10.1787 5.9745 10.2725 4.5 10.4562C4.20877 10.4929 3.91799 10.5332 3.62775 10.577C2.826 10.697 2.25 11.3975 2.25 12.2075V16.085C2.2502 16.3086 2.33918 16.5231 2.49739 16.6811C2.65561 16.8392 2.8701 16.928 3.09375 16.928H14.9062C15.372 16.928 15.75 16.55 15.75 16.085V12.2075C15.75 11.3967 15.1748 10.6962 14.3723 10.5762C14.0828 10.5327 13.7925 10.493 13.5 10.4562ZM9.19875 2.94875C9.23812 2.98807 9.26494 3.03818 9.27582 3.09275C9.2867 3.14732 9.28115 3.20388 9.25987 3.2553C9.2386 3.30671 9.20255 3.35065 9.15629 3.38157C9.11003 3.41249 9.05564 3.429 9 3.429C8.94436 3.429 8.88997 3.41249 8.84371 3.38157C8.79745 3.35065 8.7614 3.30671 8.74013 3.2553C8.71885 3.20388 8.7133 3.14732 8.72418 3.09275C8.73506 3.03818 8.76188 2.98807 8.80125 2.94875L9 2.75L9.19875 2.94875ZM6.94875 2.94875C6.98812 2.98807 7.01494 3.03818 7.02582 3.09275C7.0367 3.14732 7.03115 3.20388 7.00987 3.2553C6.9886 3.30671 6.95255 3.35065 6.90629 3.38157C6.86003 3.41249 6.80564 3.429 6.75 3.429C6.69436 3.429 6.63997 3.41249 6.59371 3.38157C6.54745 3.35065 6.5114 3.30671 6.49013 3.2553C6.46885 3.20388 6.4633 3.14732 6.47418 3.09275C6.48506 3.03818 6.51188 2.98807 6.55125 2.94875L6.75 2.75L6.94875 2.94875ZM11.4488 2.94875C11.4881 2.98807 11.5149 3.03818 11.5258 3.09275C11.5367 3.14732 11.5312 3.20388 11.5099 3.2553C11.4886 3.30671 11.4525 3.35065 11.4063 3.38157C11.36 3.41249 11.3056 3.429 11.25 3.429C11.1944 3.429 11.14 3.41249 11.0937 3.38157C11.0475 3.35065 11.0114 3.30671 10.9901 3.2553C10.9688 3.20388 10.9633 3.14732 10.9742 3.09275C10.9851 3.03818 11.0119 2.98807 11.0512 2.94875L11.25 2.75L11.4488 2.94875Z" stroke="#1B4CFB" stroke-width="1.125" stroke-linecap="round" stroke-linejoin="round"/>
</svg>
