<svg width="12" height="12" viewBox="0 0 12 12" fill="none" xmlns="http://www.w3.org/2000/svg">
<path d="M4.77482 8.7877C4.70815 8.7877 4.64565 8.77719 4.58732 8.7562C4.52898 8.7352 4.47482 8.69986 4.42482 8.6502L2.27482 6.5002C2.18315 6.40853 2.13932 6.2897 2.14332 6.1437C2.14732 5.9977 2.19532 5.87903 2.28732 5.7877C2.37898 5.69603 2.49565 5.6502 2.63732 5.6502C2.77898 5.6502 2.89565 5.69603 2.98732 5.7877L4.77482 7.5752L9.01232 3.3377C9.10398 3.24603 9.22282 3.2002 9.36882 3.2002C9.51482 3.2002 9.63348 3.24603 9.72482 3.3377C9.81648 3.42936 9.86232 3.5482 9.86232 3.6942C9.86232 3.8402 9.81648 3.95886 9.72482 4.0502L5.12482 8.6502C5.07482 8.7002 5.02065 8.7357 4.96232 8.7567C4.90398 8.7777 4.84148 8.78803 4.77482 8.7877Z" fill="#F9F9FF"/>
</svg>
