<svg width="24" height="24" viewBox="0 0 24 24" fill="none" xmlns="http://www.w3.org/2000/svg">
<path d="M9.55012 17.5749C9.41679 17.5749 9.29179 17.5539 9.17512 17.5119C9.05846 17.4699 8.95012 17.3992 8.85012 17.2999L4.55012 12.9999C4.36679 12.8166 4.27912 12.5789 4.28712 12.2869C4.29512 11.9949 4.39112 11.7576 4.57512 11.5749C4.75846 11.3916 4.99179 11.2999 5.27512 11.2999C5.55846 11.2999 5.79179 11.3916 5.97512 11.5749L9.55012 15.1499L18.0251 6.6749C18.2085 6.49157 18.4461 6.3999 18.7381 6.3999C19.0301 6.3999 19.2675 6.49157 19.4501 6.6749C19.6335 6.85824 19.7251 7.0959 19.7251 7.3879C19.7251 7.6799 19.6335 7.91724 19.4501 8.0999L10.2501 17.2999C10.1501 17.3999 10.0418 17.4709 9.92512 17.5129C9.80846 17.5549 9.68346 17.5756 9.55012 17.5749Z" fill="#F9F9FF"/>
</svg>
