<svg width="178" height="192" viewBox="0 0 178 192" fill="none" xmlns="http://www.w3.org/2000/svg">
<path d="M175.885 190.995C176.435 191.048 176.923 190.645 176.976 190.095C177.028 189.545 176.625 189.057 176.075 189.005L175.885 190.995ZM61.9802 151L62.6487 150.256L61.9802 151ZM15.6766 1.28233C15.2803 0.897707 14.6472 0.907224 14.2626 1.30358L7.99493 7.76241C7.61031 8.15875 7.61982 8.79184 8.01617 9.17646C8.41251 9.56107 9.04561 9.55156 9.43022 9.15522L15.0015 3.41402L20.7427 8.98528C21.139 9.36989 21.7721 9.36038 22.1567 8.96404C22.5413 8.56769 22.5318 7.93459 22.1355 7.54998L15.6766 1.28233ZM168.542 188.099C167.994 188.025 167.491 188.409 167.417 188.956C167.343 189.504 167.727 190.007 168.275 190.081L168.542 188.099ZM153.165 187.712C153.708 187.808 154.228 187.446 154.324 186.902C154.421 186.359 154.059 185.839 153.515 185.743L153.165 187.712ZM138.598 182.771C138.059 182.652 137.525 182.992 137.406 183.531C137.286 184.071 137.627 184.605 138.166 184.724L138.598 182.771ZM123.288 181.074C123.821 181.218 124.37 180.903 124.515 180.37C124.659 179.837 124.344 179.288 123.811 179.144L123.288 181.074ZM109.249 174.766C108.725 174.591 108.158 174.875 107.984 175.399C107.809 175.923 108.093 176.489 108.617 176.663L109.249 174.766ZM94.2471 171.32C94.7571 171.532 95.3423 171.29 95.5543 170.78C95.7663 170.27 95.5247 169.685 95.0148 169.473L94.2471 171.32ZM81.3023 163.011C80.8156 162.75 80.2094 162.932 79.9483 163.419C79.6872 163.906 79.8701 164.512 80.3568 164.773L81.3023 163.011ZM67.3015 156.606C67.7461 156.934 68.3721 156.839 68.6998 156.394C69.0274 155.95 68.9326 155.324 68.488 154.996L67.3015 156.606ZM57.9744 145.653C57.5982 145.249 56.9654 145.226 56.5611 145.603C56.1569 145.979 56.1342 146.612 56.5104 147.016L57.9744 145.653ZM48.1323 136.504C48.4454 136.959 49.0681 137.074 49.523 136.76C49.978 136.447 50.093 135.825 49.7799 135.37L48.1323 136.504ZM42.9507 124.079C42.6907 123.592 42.0849 123.408 41.5977 123.668C41.1104 123.928 40.9262 124.534 41.1863 125.021L42.9507 124.079ZM35.4209 112.924C35.6374 113.432 36.2248 113.669 36.7329 113.452C37.241 113.236 37.4773 112.648 37.2608 112.14L35.4209 112.924ZM32.5112 99.7764C32.3305 99.2545 31.7609 98.9779 31.239 99.1586C30.7171 99.3392 30.4405 99.9088 30.6212 100.431L32.5112 99.7764ZM26.6193 87.6719C26.77 88.2032 27.3229 88.5117 27.8542 88.361C28.3855 88.2103 28.6941 87.6574 28.5433 87.1261L26.6193 87.6719ZM25.2365 74.2785C25.1113 73.7406 24.5737 73.4061 24.0358 73.5313C23.4979 73.6565 23.1634 74.1941 23.2886 74.732L25.2365 74.2785ZM20.5353 61.6694C20.6384 62.2119 21.1617 62.5683 21.7043 62.4652C22.2469 62.3622 22.6032 61.8388 22.5002 61.2962L20.5353 61.6694ZM20.2635 48.1978C20.1802 47.6518 19.6702 47.2766 19.1242 47.3598C18.5782 47.443 18.2031 47.9531 18.2863 48.4991L20.2635 48.1978ZM16.4966 35.2587C16.5616 35.8072 17.0588 36.1991 17.6072 36.1342C18.1557 36.0693 18.5477 35.5721 18.4828 35.0236L16.4966 35.2587ZM17.1334 21.8007C17.0863 21.2505 16.6019 20.8426 16.0517 20.8898C15.5014 20.937 15.0936 21.4213 15.1407 21.9716L17.1334 21.8007ZM14.2281 8.65657C14.2557 9.20817 14.7252 9.63296 15.2768 9.60538C15.8284 9.57779 16.2532 9.10827 16.2256 8.55667L14.2281 8.65657ZM175.98 190C176.075 189.005 176.075 189.005 176.075 189.005C176.075 189.005 176.075 189.005 176.075 189.005C176.075 189.005 176.075 189.004 176.075 189.004C176.075 189.004 176.074 189.004 176.074 189.004C176.073 189.004 176.071 189.004 176.068 189.004C176.063 189.003 176.055 189.003 176.045 189.002C176.024 189 175.992 188.996 175.95 188.992C175.866 188.984 175.739 188.971 175.572 188.954C175.238 188.919 174.742 188.866 174.098 188.792C172.808 188.646 170.922 188.419 168.542 188.099L168.275 190.081C170.67 190.403 172.569 190.632 173.872 190.78C174.523 190.854 175.025 190.907 175.365 190.943C175.535 190.961 175.664 190.974 175.751 190.982C175.795 190.987 175.828 190.99 175.851 190.992C175.862 190.993 175.87 190.994 175.876 190.995C175.879 190.995 175.881 190.995 175.883 190.995C175.883 190.995 175.884 190.995 175.884 190.995C175.885 190.995 175.885 190.995 175.885 190.995C175.885 190.995 175.885 190.995 175.885 190.995C175.885 190.995 175.885 190.995 175.98 190ZM153.515 185.743C148.971 184.934 143.936 183.952 138.598 182.771L138.166 184.724C143.534 185.911 148.596 186.899 153.165 187.712L153.515 185.743ZM123.811 179.144C119.014 177.843 114.124 176.389 109.249 174.766L108.617 176.663C113.532 178.3 118.459 179.765 123.288 181.074L123.811 179.144ZM95.0148 169.473C90.28 167.505 85.6729 165.355 81.3023 163.011L80.3568 164.773C84.7938 167.153 89.4613 169.33 94.2471 171.32L95.0148 169.473ZM68.488 154.996C66.4287 153.479 64.4765 151.899 62.6487 150.256L61.3116 151.744C63.1919 153.434 65.195 155.054 67.3015 156.606L68.488 154.996ZM62.6487 150.256C61.0365 148.807 59.4791 147.27 57.9744 145.653L56.5104 147.016C58.0533 148.674 59.653 150.252 61.3116 151.744L62.6487 150.256ZM49.7799 135.37C47.3326 131.813 45.0603 128.032 42.9507 124.079L41.1863 125.021C43.327 129.032 45.6378 132.878 48.1323 136.504L49.7799 135.37ZM37.2608 112.14C35.5436 108.11 33.964 103.974 32.5112 99.7764L30.6212 100.431C32.0877 104.667 33.6837 108.847 35.4209 112.924L37.2608 112.14ZM28.5433 87.1261C27.3278 82.8409 26.2292 78.5427 25.2365 74.2785L23.2886 74.732C24.2879 79.0243 25.3943 83.3535 26.6193 87.6719L28.5433 87.1261ZM22.5002 61.2962C21.6488 56.8128 20.908 52.4267 20.2635 48.1978L18.2863 48.4991C18.9341 52.7499 19.679 57.16 20.5353 61.6694L22.5002 61.2962ZM18.4828 35.0236C17.9145 30.2236 17.4743 25.7763 17.1334 21.8007L15.1407 21.9716C15.4833 25.9666 15.9257 30.4354 16.4966 35.2587L18.4828 35.0236ZM16.2256 8.55667C16.1206 6.45743 16.0592 4.81196 16.0241 3.69254C16.0065 3.13284 15.9955 2.70466 15.9889 2.41705C15.9856 2.27324 15.9834 2.16458 15.982 2.09218C15.9813 2.05599 15.9808 2.02887 15.9805 2.01095C15.9804 2.00198 15.9803 1.99532 15.9802 1.99098C15.9802 1.98882 15.9801 1.98723 15.9801 1.98623C15.9801 1.98573 15.9801 1.98537 15.9801 1.98515C15.9801 1.98505 15.9801 1.98498 15.9801 1.98494C15.9801 1.98493 15.9801 1.98493 15.9801 1.98492C15.9801 1.98493 15.9801 1.98496 14.9802 1.99998C13.9803 2.015 13.9803 2.01504 13.9803 2.01508C13.9803 2.01511 13.9803 2.01517 13.9803 2.01523C13.9803 2.01534 13.9803 2.01549 13.9803 2.01567C13.9804 2.01605 13.9804 2.01656 13.9804 2.01723C13.9804 2.01856 13.9804 2.02047 13.9805 2.02296C13.9805 2.02794 13.9807 2.03525 13.9808 2.04486C13.9812 2.06408 13.9817 2.09252 13.9824 2.13004C13.9838 2.20507 13.986 2.31642 13.9894 2.46294C13.9961 2.75601 14.0073 3.18981 14.025 3.75531C14.0606 4.8863 14.1225 6.54416 14.2281 8.65657L16.2256 8.55667ZM175.79 191.991C176.89 192.096 177.866 191.29 177.971 190.19C178.076 189.09 177.27 188.114 176.17 188.009L175.79 191.991ZM61.9802 151L63.3173 149.513L61.9802 151ZM16.373 0.564676C15.5803 -0.204546 14.3142 -0.185528 13.5449 0.607162L1.00962 13.5248C0.24039 14.3175 0.259416 15.5837 1.05211 16.3529C1.84479 17.1222 3.11098 17.1031 3.88021 16.3105L15.0227 4.82809L26.5051 15.9706C27.2978 16.7398 28.564 16.7208 29.3332 15.9281C30.1024 15.1354 30.0834 13.8692 29.2907 13.1L16.373 0.564676ZM168.675 187.108C167.58 186.96 166.573 187.728 166.426 188.823C166.279 189.917 167.046 190.924 168.141 191.072L168.675 187.108ZM152.989 188.696C154.077 188.89 155.115 188.165 155.309 187.078C155.502 185.99 154.778 184.952 153.69 184.758L152.989 188.696ZM138.814 181.795C137.736 181.556 136.668 182.237 136.429 183.315C136.191 184.394 136.872 185.462 137.95 185.7L138.814 181.795ZM123.027 182.039C124.093 182.328 125.191 181.698 125.48 180.632C125.769 179.566 125.139 178.467 124.073 178.178L123.027 182.039ZM109.564 173.817C108.516 173.468 107.384 174.035 107.035 175.083C106.686 176.131 107.253 177.263 108.301 177.612L109.564 173.817ZM93.8632 172.243C94.8832 172.667 96.0538 172.184 96.4777 171.164C96.9017 170.144 96.4185 168.973 95.3986 168.549L93.8632 172.243ZM81.775 162.129C80.8016 161.607 79.5893 161.973 79.0671 162.946C78.545 163.92 78.9107 165.132 79.8841 165.654L81.775 162.129ZM66.7082 157.411C67.5974 158.067 68.8495 157.877 69.5048 156.988C70.16 156.098 69.9704 154.846 69.0812 154.191L66.7082 157.411ZM58.7065 144.972C57.9539 144.164 56.6884 144.118 55.8798 144.871C55.0713 145.623 55.0259 146.889 55.7784 147.697L58.7065 144.972ZM47.3085 137.07C47.9347 137.98 49.18 138.21 50.0899 137.584C50.9999 136.958 51.2299 135.713 50.6037 134.803L47.3085 137.07ZM43.833 123.608C43.3129 122.634 42.1014 122.266 41.1269 122.786C40.1524 123.306 39.784 124.517 40.304 125.492L43.833 123.608ZM34.5009 113.316C34.9339 114.333 36.1087 114.805 37.1249 114.372C38.141 113.939 38.6138 112.765 38.1808 111.748L34.5009 113.316ZM33.4561 99.4493C33.0948 98.4055 31.9557 97.8523 30.9119 98.2136C29.8681 98.5749 29.3149 99.714 29.6762 100.758L33.4561 99.4493ZM25.6572 87.9448C25.9587 89.0074 27.0645 89.6245 28.1271 89.3231C29.1898 89.0216 29.8068 87.9158 29.5054 86.8532L25.6572 87.9448ZM26.2105 74.0518C25.96 72.976 24.8849 72.3069 23.8091 72.5573C22.7333 72.8078 22.0642 73.8829 22.3146 74.9587L26.2105 74.0518ZM19.5529 61.8559C19.7589 62.9411 20.8057 63.6537 21.8909 63.4477C22.9761 63.2416 23.6887 62.1948 23.4826 61.1097L19.5529 61.8559ZM21.252 48.0471C21.0856 46.9551 20.0655 46.2048 18.9735 46.3713C17.8816 46.5377 17.1313 47.5578 17.2977 48.6498L21.252 48.0471ZM15.5036 35.3763C15.6334 36.4732 16.6279 37.2571 17.7248 37.1273C18.8217 36.9974 19.6057 36.0029 19.4758 34.906L15.5036 35.3763ZM18.1298 21.7153C18.0354 20.6148 17.0668 19.7991 15.9662 19.8935C14.8657 19.9878 14.05 20.9565 14.1444 22.057L18.1298 21.7153ZM13.2294 8.70654C13.2845 9.80973 14.2236 10.6593 15.3268 10.6041C16.43 10.5489 17.2795 9.6099 17.2244 8.50671L13.2294 8.70654ZM175.98 190C176.17 188.009 176.17 188.009 176.17 188.009C176.17 188.009 176.17 188.009 176.17 188.009C176.17 188.009 176.17 188.009 176.17 188.009C176.17 188.009 176.17 188.009 176.169 188.009C176.168 188.009 176.167 188.009 176.164 188.008C176.159 188.008 176.152 188.007 176.142 188.006C176.122 188.004 176.091 188.001 176.049 187.997C175.966 187.989 175.841 187.976 175.676 187.959C175.345 187.924 174.852 187.872 174.21 187.799C172.927 187.653 171.048 187.427 168.675 187.108L168.141 191.072C170.543 191.395 172.45 191.625 173.759 191.773C174.414 191.848 174.919 191.902 175.261 191.937C175.433 191.955 175.564 191.969 175.652 191.977C175.697 191.982 175.73 191.985 175.753 191.987C175.765 191.988 175.774 191.989 175.78 191.99C175.783 191.99 175.785 191.99 175.787 191.991C175.788 191.991 175.789 191.991 175.789 191.991C175.789 191.991 175.79 191.991 175.79 191.991C175.79 191.991 175.79 191.991 175.79 191.991C175.79 191.991 175.79 191.991 175.98 190ZM153.69 184.758C149.158 183.952 144.137 182.972 138.814 181.795L137.95 185.7C143.333 186.891 148.409 187.881 152.989 188.696L153.69 184.758ZM124.073 178.178C119.292 176.883 114.419 175.434 109.564 173.817L108.301 177.612C113.236 179.256 118.182 180.726 123.027 182.039L124.073 178.178ZM95.3986 168.549C90.6894 166.592 86.1125 164.456 81.775 162.129L79.8841 165.654C84.3542 168.052 89.052 170.243 93.8632 172.243L95.3986 168.549ZM69.0812 154.191C67.0456 152.691 65.1188 151.132 63.3173 149.513L60.6431 152.487C62.5496 154.201 64.5781 155.841 66.7082 157.411L69.0812 154.191ZM63.3173 149.513C61.7283 148.084 60.1919 146.568 58.7065 144.972L55.7784 147.697C57.3404 149.376 58.9612 150.975 60.6431 152.487L63.3173 149.513ZM50.6037 134.803C48.18 131.281 45.9269 127.532 43.833 123.608L40.304 125.492C42.4604 129.532 44.7904 133.411 47.3085 137.07L50.6037 134.803ZM38.1808 111.748C36.4736 107.742 34.9022 103.627 33.4561 99.4493L29.6762 100.758C31.1495 105.014 32.7538 109.216 34.5009 113.316L38.1808 111.748ZM29.5054 86.8532C28.2945 82.5846 27.1999 78.3019 26.2105 74.0518L22.3146 74.9587C23.3172 79.2651 24.4275 83.6097 25.6572 87.9448L29.5054 86.8532ZM23.4826 61.1097C22.6337 56.6391 21.8949 52.2651 21.252 48.0471L17.2977 48.6498C17.9472 52.9116 18.6941 57.3337 19.5529 61.8559L23.4826 61.1097ZM19.4758 34.906C18.909 30.1177 18.4698 25.6811 18.1298 21.7153L14.1444 22.057C14.4877 26.0617 14.9312 30.5413 15.5036 35.3763L19.4758 34.906ZM17.2244 8.50671C17.1197 6.41405 17.0585 4.7748 17.0236 3.66117C17.0061 3.10436 16.9951 2.679 16.9886 2.3941C16.9853 2.25166 16.9832 2.14433 16.9818 2.07326C16.9812 2.03773 16.9807 2.01125 16.9804 1.99399C16.9802 1.98535 16.9801 1.97902 16.9801 1.97501C16.98 1.97299 16.98 1.97157 16.98 1.97073C16.98 1.9703 16.98 1.97002 16.98 1.96989C16.98 1.96982 16.98 1.9698 16.98 1.9698C16.98 1.9698 16.98 1.96984 16.98 1.96984C16.98 1.96988 16.98 1.96994 14.9802 1.99998C12.9804 2.03002 12.9805 2.03009 12.9805 2.03017C12.9804 2.0302 12.9805 2.03029 12.9805 2.03037C12.9805 2.03051 12.9805 2.03071 12.9805 2.03093C12.9805 2.03139 12.9805 2.03198 12.9805 2.03273C12.9805 2.03422 12.9806 2.0363 12.9806 2.03894C12.9807 2.04425 12.9808 2.05188 12.981 2.06181C12.9813 2.08168 12.9818 2.11078 12.9825 2.14896C12.984 2.22531 12.9863 2.338 12.9897 2.48589C12.9965 2.78168 13.0077 3.21829 13.0255 3.78668C13.0612 4.92345 13.1234 6.58752 13.2294 8.70654L17.2244 8.50671Z" fill="#1B4CFB"/>
</svg>
