<svg width="24" height="25" viewBox="0 0 24 25" fill="none" xmlns="http://www.w3.org/2000/svg">
<path d="M12 22.75C17.5228 22.75 22 18.2728 22 12.75C22 7.22715 17.5228 2.75 12 2.75C6.47715 2.75 2 7.22715 2 12.75C2 18.2728 6.47715 22.75 12 22.75Z" stroke="#1B4CFB" stroke-width="1.5"/>
<path d="M12 17.75V18.75M12 17.75C13.657 17.75 15 16.63 15 15.25C15 13.87 13.657 12.75 12 12.75C10.343 12.75 9 11.63 9 10.25C9 8.87 10.343 7.75 12 7.75M12 17.75C10.343 17.75 9 16.63 9 15.25M12 6.75V7.75M12 7.75C13.657 7.75 15 8.87 15 10.25" stroke="#1B4CFB" stroke-width="1.5" stroke-linecap="round"/>
</svg>
