<svg width="18" height="19" viewBox="0 0 18 19" fill="none" xmlns="http://www.w3.org/2000/svg">
<path d="M5.66667 7.63736L8.16667 9.61538C8.40315 9.80264 8.69706 9.90467 9 9.90467C9.30294 9.90467 9.59685 9.80264 9.83333 9.61538L12.3333 7.63736M15 12.9121V6.31868C15 5.96895 14.8595 5.63353 14.6095 5.38623C14.3594 5.13893 14.0203 5 13.6667 5H4.33333C3.97971 5 3.64057 5.13893 3.39052 5.38623C3.14048 5.63353 3 5.96895 3 6.31868V12.9121C3 13.2618 3.14048 13.5972 3.39052 13.8445C3.64057 14.0918 3.97971 14.2308 4.33333 14.2308H13.6667C14.0203 14.2308 14.3594 14.0918 14.6095 13.8445C14.8595 13.5972 15 13.2618 15 12.9121Z" stroke="#1B4CFB" stroke-width="0.923077" stroke-linecap="round" stroke-linejoin="round"/>
</svg>
