<svg width="36" height="36" viewBox="0 0 36 36" fill="none" xmlns="http://www.w3.org/2000/svg">
<path d="M33.2625 15.7875C33.5375 16.0875 33.675 16.444 33.675 16.857C33.675 17.27 33.5375 17.626 33.2625 17.925L27.9375 23.2125C27.6625 23.5125 27.3125 23.6625 26.8875 23.6625C26.4625 23.6625 26.1125 23.5125 25.8375 23.2125L23.7 21.1125C23.4 20.8125 23.25 20.4565 23.25 20.0445C23.25 19.6325 23.4 19.276 23.7 18.975C24 18.7 24.3565 18.5625 24.7695 18.5625C25.1825 18.5625 25.5385 18.7 25.8375 18.975L26.8875 20.025L31.125 15.7875C31.425 15.5125 31.781 15.375 32.193 15.375C32.605 15.375 32.9615 15.5125 33.2625 15.7875ZM15.4875 30.6375L11.7375 27.225C9.9375 25.6 8.394 24.15 7.107 22.875C5.82 21.6 4.7575 20.4 3.9195 19.275C3.0815 18.15 2.469 17.0625 2.082 16.0125C1.695 14.9625 1.501 13.8625 1.5 12.7125C1.5 10.3625 2.2875 8.406 3.8625 6.843C5.4375 5.28 7.4 4.499 9.75 4.5C11.05 4.5 12.2875 4.7685 13.4625 5.3055C14.6375 5.8425 15.65 6.6115 16.5 7.6125C17.35 6.6125 18.3625 5.8435 19.5375 5.3055C20.7125 4.7675 21.95 4.499 23.25 4.5C25.375 4.5 27.1565 5.144 28.5945 6.432C30.0325 7.72 30.926 9.226 31.275 10.95C30.775 10.75 30.25 10.625 29.7 10.575C29.15 10.525 28.5875 10.5 28.0125 10.5C25.8875 10.5 23.9375 11.3565 22.1625 13.0695C20.3875 14.7825 19.5 16.926 19.5 19.5C19.5 20.7 19.7625 21.919 20.2875 23.157C20.8125 24.395 21.55 25.401 22.5 26.175C22.025 26.6 21.406 27.144 20.643 27.807C19.88 28.47 19.224 29.051 18.675 29.55L17.475 30.6375C17.2 30.8875 16.8685 31.0125 16.4805 31.0125C16.0925 31.0125 15.7615 30.8875 15.4875 30.6375Z" fill="#1B4CFB"/>
</svg>
