<svg width="36" height="36" viewBox="0 0 36 36" fill="none" xmlns="http://www.w3.org/2000/svg">
<path d="M16.8006 31.2305C16.6296 31.3838 16.3705 31.3838 16.1996 31.2303L11.7375 27.225C9.9375 25.6 8.3935 24.15 7.1055 22.875C5.8175 21.6 4.755 20.4 3.918 19.275C3.081 18.15 2.4685 17.0625 2.0805 16.0125C1.6925 14.9625 1.499 13.8625 1.5 12.7125C1.5 10.3625 2.2875 8.406 3.8625 6.843C5.4375 5.28 7.4 4.499 9.75 4.5C11.05 4.5 12.2875 4.775 13.4625 5.325C14.4785 5.80057 15.373 6.44437 16.146 7.25639C16.3373 7.45736 16.6627 7.45736 16.854 7.25639C17.627 6.44437 18.5215 5.80057 19.5375 5.325C20.7125 4.775 21.95 4.5 23.25 4.5C25.275 4.5 26.975 5.0685 28.35 6.2055C29.5708 7.21498 30.4467 8.45659 30.9778 9.93035C31.0793 10.2123 30.8633 10.5 30.5636 10.5H28.266C28.0889 10.5 27.9297 10.3953 27.8491 10.2376C27.4048 9.36782 26.7842 8.70528 25.9875 8.25C25.1125 7.75 24.2 7.5 23.25 7.5C21.975 7.5 20.875 7.844 19.95 8.532C19.0772 9.18119 18.26 10.0245 17.4985 11.0619C17.4123 11.1792 17.276 11.25 17.1304 11.25H15.8739C15.7259 11.25 15.5878 11.1768 15.5016 11.0565C14.7599 10.0206 13.9237 9.1786 12.993 8.5305C12.005 7.8425 10.924 7.499 9.75 7.5C8.325 7.5 7.0935 7.994 6.0555 8.982C5.0175 9.97 4.499 11.213 4.5 12.711C4.5 13.536 4.675 14.3735 5.025 15.2235C5.375 16.0735 6 17.055 6.9 18.168C7.8 19.28 9.025 20.58 10.575 22.068C12.0604 23.4939 13.936 25.2009 16.202 27.1889C16.3721 27.3382 16.6269 27.3377 16.7969 27.1882C17.3788 26.6764 18.0424 26.1012 18.7875 25.4625C19.4953 24.8559 20.0885 24.331 20.5673 23.8879C20.7465 23.722 21.0253 23.7253 21.198 23.898L21.225 23.925L21.957 24.657L22.6875 25.3875L22.6913 25.3913C22.873 25.573 22.8661 25.8696 22.6749 26.0412C22.1873 26.4789 21.604 26.9925 20.925 27.582C20.075 28.32 19.325 28.976 18.675 29.55L16.8006 31.2305ZM27.45 25.5C27.2015 25.5 27 25.2985 27 25.05V21.45C27 21.2015 26.7985 21 26.55 21H22.95C22.7015 21 22.5 20.7985 22.5 20.55V18.45C22.5 18.2015 22.7015 18 22.95 18H26.55C26.7985 18 27 17.7985 27 17.55V13.95C27 13.7015 27.2015 13.5 27.45 13.5H29.55C29.7985 13.5 30 13.7015 30 13.95V17.55C30 17.7985 30.2015 18 30.45 18H34.05C34.2985 18 34.5 18.2015 34.5 18.45V20.55C34.5 20.7985 34.2985 21 34.05 21H30.45C30.2015 21 30 21.2015 30 21.45V25.05C30 25.2985 29.7985 25.5 29.55 25.5H27.45Z" fill="#1B4CFB"/>
</svg>
