<svg width="19" height="18" viewBox="0 0 19 18" fill="none" xmlns="http://www.w3.org/2000/svg">
<path d="M6.5 15H12.5V12.75C12.5 11.925 12.2063 11.2188 11.6187 10.6313C11.0312 10.0437 10.325 9.75 9.5 9.75C8.675 9.75 7.96875 10.0437 7.38125 10.6313C6.79375 11.2188 6.5 11.925 6.5 12.75V15ZM9.5 8.25C10.325 8.25 11.0312 7.95625 11.6187 7.36875C12.2063 6.78125 12.5 6.075 12.5 5.25V3H6.5V5.25C6.5 6.075 6.79375 6.78125 7.38125 7.36875C7.96875 7.95625 8.675 8.25 9.5 8.25ZM3.5 16.5V15H5V12.75C5 11.9875 5.17825 11.2718 5.53475 10.6027C5.89125 9.93375 6.388 9.3995 7.025 9C6.3875 8.6 5.89075 8.0655 5.53475 7.3965C5.17875 6.7275 5.0005 6.012 5 5.25V3H3.5V1.5H15.5V3H14V5.25C14 6.0125 13.8218 6.72825 13.4653 7.39725C13.1088 8.06625 12.612 8.6005 11.975 9C12.6125 9.4 13.1095 9.9345 13.466 10.6035C13.8225 11.2725 14.0005 11.988 14 12.75V15H15.5V16.5H3.5Z" fill="#DC5068"/>
</svg>
