<svg width="18" height="18" viewBox="0 0 18 18" fill="none" xmlns="http://www.w3.org/2000/svg">
<path opacity="0.5" d="M9 16.5C5.4645 16.5 3.69675 16.5 2.598 15.4012C1.5 14.304 1.5 12.5355 1.5 9C1.5 5.4645 1.5 3.69675 2.598 2.598C3.6975 1.5 5.4645 1.5 9 1.5C12.5355 1.5 14.3033 1.5 15.4012 2.598C16.5 3.6975 16.5 5.4645 16.5 9C16.5 12.5355 16.5 14.3033 15.4012 15.4012C14.304 16.5 12.5355 16.5 9 16.5Z" fill="#B4C0E9"/>
<path d="M9 13.3125C9.14918 13.3125 9.29226 13.2532 9.39775 13.1477C9.50324 13.0423 9.5625 12.8992 9.5625 12.75V8.25C9.5625 8.10082 9.50324 7.95774 9.39775 7.85225C9.29226 7.74676 9.14918 7.6875 9 7.6875C8.85082 7.6875 8.70774 7.74676 8.60225 7.85225C8.49676 7.95774 8.4375 8.10082 8.4375 8.25V12.75C8.4375 13.0605 8.6895 13.3125 9 13.3125ZM9 5.25C9.19891 5.25 9.38968 5.32902 9.53033 5.46967C9.67098 5.61032 9.75 5.80109 9.75 6C9.75 6.19891 9.67098 6.38968 9.53033 6.53033C9.38968 6.67098 9.19891 6.75 9 6.75C8.80109 6.75 8.61032 6.67098 8.46967 6.53033C8.32902 6.38968 8.25 6.19891 8.25 6C8.25 5.80109 8.32902 5.61032 8.46967 5.46967C8.61032 5.32902 8.80109 5.25 9 5.25Z" fill="#1B4CFB"/>
</svg>
