<svg width="18" height="19" viewBox="0 0 18 19" fill="none" xmlns="http://www.w3.org/2000/svg">
<path opacity="0.5" d="M9 17C5.4645 17 3.69675 17 2.598 15.9012C1.5 14.804 1.5 13.0355 1.5 9.5C1.5 5.9645 1.5 4.19675 2.598 3.098C3.6975 2 5.4645 2 9 2C12.5355 2 14.3033 2 15.4012 3.098C16.5 4.1975 16.5 5.9645 16.5 9.5C16.5 13.0355 16.5 14.8033 15.4012 15.9012C14.304 17 12.5355 17 9 17Z" fill="#B4C0E9"/>
<path d="M9 13.8125C9.14918 13.8125 9.29226 13.7532 9.39775 13.6477C9.50324 13.5423 9.5625 13.3992 9.5625 13.25V8.75C9.5625 8.60082 9.50324 8.45774 9.39775 8.35225C9.29226 8.24676 9.14918 8.1875 9 8.1875C8.85082 8.1875 8.70774 8.24676 8.60225 8.35225C8.49676 8.45774 8.4375 8.60082 8.4375 8.75V13.25C8.4375 13.5605 8.6895 13.8125 9 13.8125ZM9 5.75C9.19891 5.75 9.38968 5.82902 9.53033 5.96967C9.67098 6.11032 9.75 6.30109 9.75 6.5C9.75 6.69891 9.67098 6.88968 9.53033 7.03033C9.38968 7.17098 9.19891 7.25 9 7.25C8.80109 7.25 8.61032 7.17098 8.46967 7.03033C8.32902 6.88968 8.25 6.69891 8.25 6.5C8.25 6.30109 8.32902 6.11032 8.46967 5.96967C8.61032 5.82902 8.80109 5.75 9 5.75Z" fill="#1B4CFB"/>
</svg>
