<svg width="135" height="44" viewBox="0 0 135 44" fill="none" xmlns="http://www.w3.org/2000/svg">
<path d="M133.5 32.4906C133.5 33.0429 133.053 33.4906 132.5 33.4906C131.948 33.4906 131.5 33.0429 131.5 32.4906L133.5 32.4906ZM99.5001 5.50007L99.8164 4.55139L99.5001 5.50007ZM3.55748 42.9985C3.00608 43.03 2.53356 42.6085 2.50203 42.0572L1.98845 33.0718C1.95692 32.5204 2.37837 32.0479 2.92975 32.0164C3.48113 31.9849 3.95367 32.4063 3.98518 32.9577L4.44171 40.9447L12.4287 40.4881C12.9801 40.4566 13.4526 40.8781 13.4841 41.4294C13.5156 41.9808 13.0942 42.4534 12.5428 42.4849L3.55748 42.9985ZM130.027 27.6204C129.784 27.1247 129.988 26.5255 130.484 26.282C130.98 26.0385 131.579 26.2429 131.823 26.7386L130.027 27.6204ZM124.684 17.7447C125.097 18.1116 125.134 18.7436 124.768 19.1565C124.401 19.5693 123.769 19.6066 123.356 19.2398L124.684 17.7447ZM114.38 12.9865C113.898 12.7172 113.725 12.108 113.994 11.6258C114.264 11.1437 114.873 10.9711 115.355 11.2404L114.38 12.9865ZM105.128 6.46958C105.642 6.67075 105.896 7.25079 105.695 7.76514C105.494 8.27948 104.914 8.53335 104.4 8.33218L105.128 6.46958ZM92.7562 4.69701C92.216 4.58183 91.8715 4.05059 91.9867 3.51045C92.1019 2.97031 92.6331 2.62581 93.1733 2.74099L92.7562 4.69701ZM79.5268 1.3781C80.0791 1.37339 80.5306 1.81728 80.5353 2.36955C80.54 2.92181 80.0961 3.37332 79.5439 3.37802L79.5268 1.3781ZM66.3086 4.81239C65.7675 4.92308 65.2391 4.57418 65.1284 4.0331C65.0177 3.49202 65.3666 2.96366 65.9077 2.85297L66.3086 4.81239ZM52.7816 6.68357C53.2984 6.48879 53.8752 6.74984 54.07 7.26664C54.2648 7.78344 54.0037 8.36028 53.4869 8.55506L52.7816 6.68357ZM41.2939 14.0945C40.806 14.3533 40.2007 14.1677 39.9419 13.6798C39.683 13.1919 39.8687 12.5866 40.3566 12.3278L41.2939 14.0945ZM28.6755 19.3516C29.1339 19.0435 29.7552 19.1653 30.0633 19.6237C30.3714 20.0821 30.2495 20.7034 29.7912 21.0115L28.6755 19.3516ZM19.0004 28.998C18.5713 29.3457 17.9416 29.2796 17.594 28.8504C17.2463 28.4212 17.3124 27.7915 17.7416 27.4439L19.0004 28.998ZM7.53638 36.4552C7.93392 36.0718 8.56698 36.0833 8.95037 36.4808C9.33376 36.8783 9.3223 37.5114 8.92476 37.8948L7.53638 36.4552ZM132.5 32.4906C131.5 32.4906 131.5 32.491 131.5 32.4913C131.5 32.4914 131.5 32.4918 131.5 32.492C131.5 32.4924 131.5 32.4928 131.5 32.4932C131.5 32.4939 131.5 32.4945 131.5 32.495C131.5 32.4959 131.5 32.4963 131.5 32.4963C131.5 32.4962 131.5 32.494 131.5 32.49C131.5 32.4818 131.5 32.4658 131.498 32.4421C131.496 32.3948 131.491 32.3171 131.481 32.2107C131.46 31.9981 131.416 31.6713 131.325 31.2455C131.144 30.3944 130.777 29.1454 130.027 27.6204L131.823 26.7386C132.649 28.4205 133.069 29.8271 133.282 30.8298C133.388 31.3309 133.443 31.7305 133.471 32.0127C133.485 32.1537 133.492 32.2654 133.496 32.3457C133.498 32.3859 133.499 32.4182 133.5 32.4424C133.5 32.4545 133.5 32.4646 133.5 32.4727C133.5 32.4767 133.5 32.4802 133.5 32.4832C133.5 32.4847 133.5 32.486 133.5 32.4873C133.5 32.4879 133.5 32.4885 133.5 32.489C133.5 32.4893 133.5 32.4897 133.5 32.4898C133.5 32.4902 133.5 32.4906 132.5 32.4906ZM123.356 19.2398C121.071 17.2098 118.14 15.0867 114.38 12.9865L115.355 11.2404C119.23 13.4047 122.282 15.6101 124.684 17.7447L123.356 19.2398ZM104.4 8.33218C102.762 7.69171 101.026 7.06263 99.1839 6.44876L99.8164 4.55139C101.689 5.1756 103.458 5.81622 105.128 6.46958L104.4 8.33218ZM99.1839 6.44876C97.0361 5.73284 94.8923 5.15252 92.7562 4.69701L93.1733 2.74099C95.3815 3.21186 97.5972 3.81169 99.8164 4.55139L99.1839 6.44876ZM79.5439 3.37802C75.0513 3.41627 70.6266 3.92904 66.3086 4.81239L65.9077 2.85297C70.3396 1.94634 74.8931 1.41755 79.5268 1.3781L79.5439 3.37802ZM53.4869 8.55506C49.244 10.1542 45.1646 12.0409 41.2939 14.0945L40.3566 12.3278C44.2924 10.2395 48.4495 8.31631 52.7816 6.68357L53.4869 8.55506ZM29.7912 21.0115C25.806 23.69 22.1841 26.4193 19.0004 28.998L17.7416 27.4439C20.9648 24.8331 24.6346 22.0676 28.6755 19.3516L29.7912 21.0115ZM8.92476 37.8948C7.40947 39.3562 6.23654 40.5527 5.44403 41.3821C5.0478 41.7968 4.74673 42.1197 4.54557 42.3379C4.445 42.447 4.36941 42.5299 4.31939 42.5851C4.2944 42.6127 4.27578 42.6333 4.26365 42.6468C4.25758 42.6536 4.25312 42.6585 4.25029 42.6617C4.24889 42.6633 4.24788 42.6644 4.24728 42.6651C4.24699 42.6654 4.24679 42.6656 4.24669 42.6657C4.24665 42.6658 4.24662 42.6658 4.24663 42.6658C4.24663 42.6658 4.24665 42.6658 4.24665 42.6658C4.24668 42.6657 4.24671 42.6657 3.50041 42.0001C2.7541 41.3345 2.75415 41.3344 2.7542 41.3344C2.75423 41.3343 2.75429 41.3343 2.75434 41.3342C2.75444 41.3341 2.75458 41.334 2.75474 41.3338C2.75505 41.3334 2.75546 41.333 2.75599 41.3324C2.75702 41.3312 2.75847 41.3296 2.76033 41.3275C2.76405 41.3234 2.76939 41.3174 2.77635 41.3097C2.79029 41.2942 2.81072 41.2715 2.83756 41.2419C2.89125 41.1827 2.97062 41.0956 3.07506 40.9823C3.28396 40.7557 3.5932 40.4241 3.99802 40.0005C4.80761 39.1532 5.99977 37.9372 7.53638 36.4552L8.92476 37.8948ZM134.5 32.4905C134.5 33.5951 133.605 34.4906 132.5 34.4906C131.396 34.4906 130.5 33.5952 130.5 32.4907L134.5 32.4905ZM99.5001 5.50007L100.133 3.60271L99.5001 5.50007ZM3.61454 43.9968C2.51177 44.0599 1.5667 43.217 1.50367 42.1142L0.476476 24.1436C0.413454 23.0408 1.25633 22.0957 2.35909 22.0327C3.46186 21.9697 4.40692 22.8125 4.46996 23.9153L5.38302 39.8892L21.3569 38.9762C22.4597 38.9131 23.4048 39.756 23.4678 40.8588C23.5308 41.9615 22.688 42.9066 21.5852 42.9696L3.61454 43.9968ZM129.13 28.0613C128.643 27.0699 129.052 25.8714 130.043 25.3844C131.035 24.8974 132.233 25.3063 132.72 26.2977L129.13 28.0613ZM125.349 16.9972C126.174 17.7309 126.249 18.995 125.515 19.8207C124.781 20.6464 123.517 20.721 122.692 19.9873L125.349 16.9972ZM113.892 13.8596C112.928 13.321 112.583 12.1026 113.121 11.1382C113.66 10.1739 114.878 9.82874 115.843 10.3673L113.892 13.8596ZM105.492 5.53828C106.521 5.94063 107.029 7.1007 106.626 8.12939C106.224 9.15807 105.064 9.66582 104.035 9.26348L105.492 5.53828ZM92.5476 5.67502C91.4673 5.44467 90.7783 4.38218 91.0087 3.3019C91.2391 2.22162 92.3015 1.53262 93.3818 1.76298L92.5476 5.67502ZM79.5183 0.378133C80.6228 0.368729 81.5259 1.2565 81.5353 2.36103C81.5447 3.46556 80.6569 4.36858 79.5524 4.37799L79.5183 0.378133ZM66.509 5.7921C65.4268 6.01348 64.3701 5.31567 64.1487 4.23352C63.9273 3.15136 64.6251 2.09463 65.7073 1.87326L66.509 5.7921ZM52.4289 5.74782C53.4625 5.35827 54.6162 5.88037 55.0057 6.91396C55.3953 7.94756 54.8732 9.10125 53.8396 9.49081L52.4289 5.74782ZM41.7626 14.9779C40.7868 15.4955 39.5762 15.1242 39.0585 14.1485C38.5408 13.1727 38.9121 11.9621 39.8879 11.4444L41.7626 14.9779ZM28.1177 18.5216C29.0344 17.9055 30.2771 18.1491 30.8932 19.0659C31.5094 19.9826 31.2657 21.2253 30.349 21.8414L28.1177 18.5216ZM19.6299 29.7751C18.7715 30.4703 17.5121 30.3381 16.8169 29.4798C16.1217 28.6215 16.2539 27.3621 17.1122 26.6668L19.6299 29.7751ZM6.8422 35.7354C7.63726 34.9686 8.90338 34.9916 9.67016 35.7866C10.4369 36.5817 10.414 37.8478 9.61895 38.6146L6.8422 35.7354ZM132.5 32.4906C130.5 32.4907 130.5 32.4914 130.5 32.4921C130.5 32.4923 130.5 32.493 130.5 32.4935C130.5 32.4944 130.5 32.4953 130.5 32.4961C130.5 32.4978 130.5 32.4994 130.5 32.5009C130.5 32.5038 130.5 32.5062 130.5 32.5081C130.501 32.5119 130.501 32.5138 130.501 32.5137C130.501 32.5136 130.5 32.5057 130.5 32.4903C130.498 32.4595 130.494 32.3987 130.486 32.3098C130.468 32.1319 130.43 31.8415 130.347 31.4533C130.182 30.678 129.841 29.5079 129.13 28.0613L132.72 26.2977C133.585 28.058 134.031 29.5434 134.26 30.622C134.374 31.1607 134.434 31.5967 134.466 31.9136C134.482 32.0721 134.49 32.2007 134.495 32.2975C134.497 32.3459 134.499 32.3864 134.499 32.4186C134.5 32.4348 134.5 32.4488 134.5 32.4608C134.5 32.4668 134.5 32.4723 134.5 32.4773C134.5 32.4797 134.5 32.4821 134.5 32.4843C134.5 32.4854 134.5 32.4865 134.5 32.4875C134.5 32.488 134.5 32.4888 134.5 32.4891C134.5 32.4898 134.5 32.4905 132.5 32.4906ZM122.692 19.9873C120.466 18.0096 117.595 15.9277 113.892 13.8596L115.843 10.3673C119.775 12.5638 122.887 14.8102 125.349 16.9972L122.692 19.9873ZM104.035 9.26348C102.414 8.62945 100.694 8.00614 98.8677 7.39744L100.133 3.60271C102.021 4.23209 103.805 4.87848 105.492 5.53828L104.035 9.26348ZM98.8677 7.39744C96.7556 6.69341 94.6477 6.12284 92.5476 5.67502L93.3818 1.76298C95.6261 2.24154 97.8778 2.85111 100.133 3.60271L98.8677 7.39744ZM79.5524 4.37799C75.1304 4.41564 70.7702 4.92039 66.509 5.7921L65.7073 1.87326C70.1961 0.954995 74.814 0.418184 79.5183 0.378133L79.5524 4.37799ZM53.8396 9.49081C49.6413 11.0731 45.6006 12.9416 41.7626 14.9779L39.8879 11.4444C43.8564 9.33886 48.0522 7.39737 52.4289 5.74782L53.8396 9.49081ZM30.349 21.8414C26.3918 24.5012 22.7937 27.2124 19.6299 29.7751L17.1122 26.6668C20.3552 24.04 24.0489 21.2564 28.1177 18.5216L30.349 21.8414ZM9.61895 38.6146C8.11432 40.0657 6.95101 41.2525 6.16704 42.073C5.77511 42.4832 5.47811 42.8017 5.28083 43.0157C5.18218 43.1227 5.10849 43.2035 5.06031 43.2567C5.03623 43.2833 5.01853 43.3029 5.00729 43.3154C5.00167 43.3216 4.99766 43.3261 4.99528 43.3288C4.99409 43.3301 4.99331 43.331 4.99293 43.3314C4.99274 43.3316 4.99265 43.3317 4.99267 43.3317C4.99267 43.3317 4.99271 43.3316 4.99277 43.3316C4.9928 43.3315 4.99286 43.3315 4.99287 43.3315C4.99294 43.3314 4.99302 43.3313 3.50041 42.0001C2.0078 40.6689 2.00788 40.6688 2.00799 40.6687C2.00802 40.6686 2.00812 40.6685 2.0082 40.6684C2.00836 40.6683 2.00854 40.668 2.00876 40.6678C2.00919 40.6673 2.00971 40.6667 2.01035 40.666C2.0116 40.6646 2.01327 40.6628 2.01535 40.6604C2.0195 40.6558 2.02529 40.6493 2.0327 40.6411C2.04754 40.6246 2.06887 40.6009 2.09665 40.5703C2.15217 40.509 2.23343 40.4199 2.33981 40.3045C2.55258 40.0737 2.86589 39.7378 3.275 39.3096C4.09315 38.4534 5.29492 37.2277 6.8422 35.7354L9.61895 38.6146Z" fill="#1B4CFB"/>
</svg>
