<svg width="125" height="18" viewBox="0 0 125 18" fill="none" xmlns="http://www.w3.org/2000/svg">
<path d="M13.8886 8.208C14.8646 8.416 15.6486 8.904 16.2406 9.672C16.8326 10.424 17.1286 11.288 17.1286 12.264C17.1286 13.672 16.6326 14.792 15.6406 15.624C14.6646 16.44 13.2966 16.848 11.5366 16.848H3.68856V3.288L0 0L11.2726 0C12.9846 0 14.3206 0.392 15.2806 1.176C16.2566 1.96 16.7446 3.024 16.7446 4.368C16.7446 5.36 16.4806 6.184 15.9526 6.84C15.4406 7.496 14.7526 7.952 13.8886 8.208ZM7.79256 6.816H10.4806C11.1526 6.816 11.6646 6.672 12.0166 6.384C12.3846 6.08 12.5686 5.64 12.5686 5.064C12.5686 4.488 12.3846 4.048 12.0166 3.744C11.6646 3.44 11.1526 3.288 10.4806 3.288H7.79256V6.816ZM10.8166 13.536C11.5046 13.536 12.0326 13.384 12.4006 13.08C12.7846 12.76 12.9766 12.304 12.9766 11.712C12.9766 11.12 12.7766 10.656 12.3766 10.32C11.9926 9.984 11.4566 9.816 10.7686 9.816H7.79256V13.536H10.8166Z" fill="#1B4CFB"/>
<path d="M26.7924 17.256C25.2084 17.256 23.7524 16.888 22.4244 16.152C21.1124 15.416 20.0644 14.392 19.2804 13.08C18.5124 11.752 18.1284 10.264 18.1284 8.616C18.1284 6.968 18.5124 5.488 19.2804 4.176C20.0644 2.864 21.1124 1.84 22.4244 1.104C23.7524 0.368 25.2084 0 26.7924 0C28.3764 0 29.8244 0.368 31.1364 1.104C32.4644 1.84 33.5044 2.864 34.2564 4.176C35.0244 5.488 35.4084 6.968 35.4084 8.616C35.4084 10.264 35.0244 11.752 34.2564 13.08C33.4884 14.392 32.4484 15.416 31.1364 16.152C29.8244 16.888 28.3764 17.256 26.7924 17.256ZM26.7924 13.512C28.1364 13.512 29.2084 13.064 30.0084 12.168C30.8244 11.272 31.2324 10.088 31.2324 8.616C31.2324 7.128 30.8244 5.944 30.0084 5.064C29.2084 4.168 28.1364 3.72 26.7924 3.72C25.4324 3.72 24.3444 4.16 23.5284 5.04C22.7284 5.92 22.3284 7.112 22.3284 8.616C22.3284 10.104 22.7284 11.296 23.5284 12.192C24.3444 13.072 25.4324 13.512 26.7924 13.512Z" fill="#1B4CFB"/>
<path d="M48.0116 17.088L44.5796 11.928L41.5556 17.088H36.8996L42.2996 8.52L36.7796 0.24H41.5556L44.9396 5.328L47.9156 0.24H52.5716L47.2196 8.736L52.7876 17.088H48.0116Z" fill="#1B4CFB"/>
<path d="M67.6762 8.208C68.6522 8.416 69.4362 8.904 70.0282 9.672C70.6202 10.424 70.9162 11.288 70.9162 12.264C70.9162 13.672 70.4202 14.792 69.4282 15.624C68.4522 16.44 67.0842 16.848 65.3242 16.848H57.4762V3.288L53.7876 0L65.0602 0C66.7722 0 68.1082 0.392 69.0682 1.176C70.0442 1.96 70.5322 3.024 70.5322 4.368C70.5322 5.36 70.2682 6.184 69.7402 6.84C69.2282 7.496 68.5402 7.952 67.6762 8.208ZM61.5802 6.816H64.2682C64.9402 6.816 65.4522 6.672 65.8042 6.384C66.1722 6.08 66.3562 5.64 66.3562 5.064C66.3562 4.488 66.1722 4.048 65.8042 3.744C65.4522 3.44 64.9402 3.288 64.2682 3.288H61.5802V6.816ZM64.6042 13.536C65.2922 13.536 65.8202 13.384 66.1882 13.08C66.5722 12.76 66.7642 12.304 66.7642 11.712C66.7642 11.12 66.5642 10.656 66.1642 10.32C65.7802 9.984 65.2442 9.816 64.5562 9.816H61.5802V13.536H64.6042Z" fill="#1B4CFB"/>
<path d="M76.0205 0.24V17.088H71.9165V0.24H76.0205Z" fill="#1B4CFB"/>
<path d="M87.5866 17.088L84.0826 10.728H83.0986V17.088H78.9946V0.24H85.8826C87.2106 0.24 88.3386 0.472 89.2666 0.935999C90.2106 1.4 90.9146 2.04 91.3786 2.856C91.8426 3.656 92.0746 4.552 92.0746 5.544C92.0746 6.664 91.7546 7.664 91.1146 8.544C90.4906 9.424 89.5626 10.048 88.3306 10.416L92.2186 17.088H87.5866ZM83.0986 7.824H85.6426C86.3946 7.824 86.9546 7.64 87.3226 7.272C87.7066 6.904 87.8986 6.384 87.8986 5.712C87.8986 5.072 87.7066 4.568 87.3226 4.2C86.9546 3.832 86.3946 3.648 85.6426 3.648H83.0986V7.824Z" fill="#1B4CFB"/>
<path d="M100.963 0.24C102.739 0.24 104.291 0.592 105.619 1.296C106.947 2 107.971 2.992 108.691 4.272C109.427 5.536 109.795 7 109.795 8.664C109.795 10.312 109.427 11.776 108.691 13.056C107.971 14.336 106.939 15.328 105.595 16.032C104.267 16.736 102.723 17.088 100.963 17.088H94.6509V0.24H100.963ZM100.699 13.536C102.251 13.536 103.459 13.112 104.323 12.264C105.187 11.416 105.619 10.216 105.619 8.664C105.619 7.112 105.187 5.904 104.323 5.04C103.459 4.176 102.251 3.744 100.699 3.744H98.7549V13.536H100.699Z" fill="#1B4CFB"/>
<path d="M118.184 17.256C116.952 17.256 115.848 17.056 114.872 16.656C113.896 16.256 113.112 15.664 112.52 14.88C111.944 14.096 111.64 13.152 111.608 12.048H115.976C116.04 12.672 116.256 13.152 116.624 13.488C116.992 13.808 117.472 13.968 118.064 13.968C118.672 13.968 119.152 13.832 119.504 13.56C119.856 13.272 120.032 12.88 120.032 12.384C120.032 11.968 119.888 11.624 119.6 11.352C119.328 11.08 118.984 10.856 118.568 10.68C118.168 10.504 117.592 10.304 116.84 10.08C115.752 9.744 114.864 9.408 114.176 9.072C113.488 8.736 112.896 8.24 112.4 7.584C111.904 6.928 111.656 6.072 111.656 5.016C111.656 3.448 112.224 2.224 113.36 1.344C114.496 0.448 115.976 0 117.8 0C119.656 0 121.152 0.448 122.288 1.344C123.424 2.224 124.032 3.456 124.112 5.04H119.672C119.64 4.496 119.44 4.072 119.072 3.768C118.704 3.448 118.232 3.288 117.656 3.288C117.16 3.288 116.76 3.424 116.456 3.696C116.152 3.952 116 4.328 116 4.824C116 5.368 116.256 5.792 116.768 6.096C117.28 6.4 118.08 6.728 119.168 7.08C120.256 7.448 121.136 7.8 121.808 8.136C122.496 8.472 123.088 8.96 123.584 9.6C124.08 10.24 124.328 11.064 124.328 12.072C124.328 13.032 124.08 13.904 123.584 14.688C123.104 15.472 122.4 16.096 121.472 16.56C120.544 17.024 119.448 17.256 118.184 17.256Z" fill="#1B4CFB"/>
</svg>
