<svg width="24" height="24" viewBox="0 0 24 24" fill="none" xmlns="http://www.w3.org/2000/svg">
<path d="M9.94867 2.14676C10.0607 2.18476 10.1707 2.23076 10.2777 2.28276L11.5607 2.91476C11.7324 2.99929 11.9213 3.04325 12.1127 3.04325C12.3041 3.04325 12.4929 2.99929 12.6647 2.91476L13.9477 2.28276C14.602 1.96092 15.3573 1.91212 16.0476 2.14709C16.7379 2.38206 17.3066 2.88157 17.6287 3.53576L17.7027 3.69776L17.7657 3.86476L18.2257 5.21776C18.3507 5.58576 18.6397 5.87376 19.0067 5.99876L20.3607 6.45876C20.731 6.58477 21.0703 6.78836 21.3557 7.05592C21.6411 7.32348 21.8661 7.64886 22.0158 8.01033C22.1654 8.3718 22.2362 8.76103 22.2234 9.15205C22.2107 9.54306 22.1146 9.92684 21.9417 10.2778L21.3107 11.5608C21.2261 11.7325 21.1822 11.9214 21.1822 12.1128C21.1822 12.3042 21.2261 12.493 21.3107 12.6648L21.9417 13.9478C22.1144 14.2986 22.2103 14.6823 22.223 15.0732C22.2357 15.4641 22.1649 15.8532 22.0153 16.2146C21.8656 16.5759 21.6406 16.9012 21.3553 17.1687C21.07 17.4362 20.7309 17.6397 20.3607 17.7658L19.0067 18.2258C18.8255 18.2876 18.661 18.3901 18.5258 18.5255C18.3906 18.6609 18.2882 18.8256 18.2267 19.0068L17.7657 20.3608C17.6396 20.731 17.4361 21.0701 17.1686 21.3554C16.9011 21.6407 16.5758 21.8657 16.2145 22.0154C15.8531 22.165 15.464 22.2358 15.0731 22.2231C14.6822 22.2104 14.2986 22.1145 13.9477 21.9418L12.6647 21.3108C12.4929 21.2262 12.3041 21.1823 12.1127 21.1823C11.9213 21.1823 11.7324 21.2262 11.5607 21.3108L10.2777 21.9418C9.92679 22.1145 9.5431 22.2104 9.1522 22.2231C8.76131 22.2358 8.3722 22.165 8.01086 22.0154C7.64951 21.8657 7.32424 21.6407 7.05675 21.3554C6.78926 21.0701 6.5857 20.731 6.45967 20.3608L5.99967 19.0068C5.93778 18.8255 5.83508 18.6609 5.69949 18.5257C5.56391 18.3905 5.39906 18.2882 5.21767 18.2268L3.86467 17.7658C3.49435 17.6398 3.15514 17.4364 2.86971 17.1689C2.58428 16.9015 2.35919 16.5762 2.20946 16.2149C2.05973 15.8535 1.98881 15.4644 2.00143 15.0734C2.01406 14.6825 2.10994 14.2987 2.28267 13.9478L2.91467 12.6648C2.9992 12.493 3.04316 12.3042 3.04316 12.1128C3.04316 11.9214 2.9992 11.7325 2.91467 11.5608L2.28267 10.2778C2.10994 9.92682 2.01406 9.54307 2.00143 9.15212C1.98881 8.76117 2.05973 8.37203 2.20946 8.01067C2.35919 7.64932 2.58428 7.32406 2.86971 7.05661C3.15514 6.78917 3.49435 6.58569 3.86467 6.45976L5.21767 5.99976C5.39909 5.93801 5.56387 5.83536 5.69929 5.69977C5.83471 5.56417 5.93715 5.39926 5.99867 5.21776L6.45867 3.86476C6.57495 3.52276 6.75748 3.20701 6.99582 2.93556C7.23417 2.66411 7.52365 2.44228 7.84775 2.28274C8.17185 2.1232 8.5242 2.02907 8.88468 2.00574C9.24517 1.98241 9.60671 2.03033 9.94867 2.14676ZM15.5817 9.08176L10.1627 14.5018L8.18867 12.1318C8.12651 12.0534 8.04931 11.9883 7.96161 11.9402C7.87391 11.8922 7.77749 11.8621 7.67801 11.8519C7.57853 11.8416 7.478 11.8514 7.38235 11.8806C7.28669 11.9097 7.19784 11.9577 7.12101 12.0218C7.04418 12.0858 6.98094 12.1645 6.93499 12.2534C6.88904 12.3422 6.86132 12.4393 6.85347 12.539C6.84561 12.6387 6.85777 12.739 6.88923 12.8339C6.92069 12.9288 6.97082 13.0165 7.03667 13.0918L9.53667 16.0918C9.60333 16.1718 9.68593 16.2371 9.7792 16.2834C9.87248 16.3298 9.97438 16.3562 10.0784 16.361C10.1825 16.3658 10.2864 16.3489 10.3835 16.3113C10.4807 16.2737 10.5689 16.2163 10.6427 16.1428L16.6427 10.1428C16.7164 10.0741 16.7755 9.9913 16.8165 9.8993C16.8574 9.8073 16.8795 9.70799 16.8813 9.60729C16.883 9.50658 16.8645 9.40655 16.8268 9.31317C16.7891 9.21978 16.7329 9.13495 16.6617 9.06373C16.5905 8.99251 16.5057 8.93636 16.4123 8.89864C16.3189 8.86092 16.2189 8.8424 16.1181 8.84417C16.0174 8.84595 15.9181 8.86799 15.8261 8.90898C15.7341 8.94998 15.6513 9.00908 15.5827 9.08276L15.5817 9.08176Z" fill="#63CB75"/>
</svg>
