<svg width="24" height="24" viewBox="0 0 24 24" fill="none" xmlns="http://www.w3.org/2000/svg">
<path d="M16.7622 2.51213C17.0903 2.1842 17.5353 2 17.9992 2C18.4631 2 18.908 2.1842 19.2362 2.51213L21.8222 5.09813C22.1501 5.42628 22.3343 5.87121 22.3343 6.33513C22.3343 6.79904 22.1501 7.24397 21.8222 7.57213L19.0292 10.3651L19.0172 10.3781L8.18917 20.7131C7.99129 20.9022 7.7519 21.0422 7.49017 21.1221L1.96717 22.8021C1.83731 22.8415 1.6992 22.8448 1.56761 22.8117C1.43602 22.7786 1.31592 22.7103 1.22017 22.6141C1.12402 22.5184 1.05574 22.3983 1.02262 22.2667C0.989503 22.1351 0.992804 21.997 1.03217 21.8671L2.70517 16.3671C2.79291 16.0792 2.95341 15.8189 3.17117 15.6111L13.9752 5.29813L16.7622 2.51213ZM4.20717 16.6961C4.17625 16.726 4.15322 16.7631 4.14017 16.8041L2.87617 20.9581L7.05317 19.6871C7.09063 19.6755 7.12486 19.6553 7.15317 19.6281L17.4262 9.82213L14.4862 6.88313L4.20717 16.6961ZM18.4992 8.77513L20.7622 6.51313C20.7854 6.4899 20.8039 6.46232 20.8165 6.43194C20.8291 6.40157 20.8356 6.36901 20.8356 6.33613C20.8356 6.30324 20.8291 6.27068 20.8165 6.24031C20.8039 6.20994 20.7854 6.18235 20.7622 6.15913L18.1762 3.57313C18.1529 3.54984 18.1254 3.53137 18.095 3.51877C18.0646 3.50617 18.0321 3.49968 17.9992 3.49968C17.9663 3.49968 17.9337 3.50617 17.9034 3.51877C17.873 3.53137 17.8454 3.54984 17.8222 3.57313L15.5602 5.83513L18.4992 8.77513Z" fill="#1B4CFB"/>
</svg>
