<svg width="18" height="19" viewBox="0 0 18 19" fill="none" xmlns="http://www.w3.org/2000/svg">
<path fill-rule="evenodd" clip-rule="evenodd" d="M3.351 3.38048C4.2705 2.41223 5.7915 2.59298 6.552 3.66848L7.497 5.00648C8.10525 5.86673 8.05425 7.06149 7.32825 7.82649L7.1445 8.01924C7.14398 8.02073 7.14348 8.02223 7.143 8.02374C7.13325 8.05073 7.10925 8.13773 7.13325 8.30273C7.1835 8.64398 7.44675 9.33848 8.51775 10.4657C9.59175 11.5967 10.2428 11.863 10.545 11.9125C10.6178 11.9288 10.6935 11.927 10.7655 11.9072L11.0715 11.5847C11.727 10.8947 12.7485 10.759 13.5728 11.233L15.0053 12.058C16.23 12.763 16.515 14.4872 15.5363 15.5177L14.4713 16.639C14.139 16.9892 13.6853 17.2885 13.125 17.344C11.757 17.479 8.58825 17.3027 5.2665 13.8047C2.166 10.5415 1.57725 7.70273 1.503 6.31598C1.46625 5.63049 1.7715 5.04323 2.1735 4.61948L3.351 3.38048ZM5.63325 4.31798C5.24925 3.77498 4.5585 3.74198 4.16625 4.15523L2.98875 5.39423C2.74125 5.65673 2.61 5.95674 2.6265 6.25599C2.6865 7.38848 3.17475 9.96999 6.08175 13.03C9.12975 16.24 11.9385 16.33 13.0148 16.2235C13.227 16.2032 13.446 16.0847 13.6553 15.8642L14.7203 14.743C15.1808 14.2585 15.06 13.387 14.4443 13.033L13.0118 12.208C12.627 11.9867 12.1763 12.055 11.8875 12.3595L11.5455 12.7195L11.1503 12.3437C11.5455 12.7187 11.5455 12.7195 11.5448 12.7202L11.544 12.721L11.5418 12.724L11.5365 12.7285L11.526 12.739C11.4945 12.7699 11.4604 12.798 11.424 12.823C11.364 12.865 11.2845 12.9122 11.1833 12.952C10.9763 13.0337 10.7033 13.0772 10.365 13.0225C9.7065 12.916 8.844 12.4427 7.7025 11.2405C6.5565 10.0345 6.11775 9.13523 6.02025 8.46548C5.97 8.12498 6.00975 7.85273 6.08325 7.64648C6.12405 7.53155 6.18222 7.42354 6.25575 7.32623L6.27825 7.29848L6.28875 7.28723L6.29325 7.28198L6.2955 7.27974L6.297 7.27899C6.297 7.27899 6.297 7.27748 6.69675 7.65624L6.29775 7.27748L6.513 7.05098C6.84675 6.69923 6.8955 6.10373 6.579 5.65598L5.63325 4.31798Z" fill="#1B4CFB"/>
<path d="M9.75749 2.47222C9.7816 2.325 9.86313 2.19335 9.9842 2.10618C10.1053 2.019 10.256 1.98341 10.4032 2.00722C10.422 2.01097 10.4835 2.02222 10.5157 2.02972C10.5795 2.04322 10.6687 2.06572 10.7797 2.09722C11.0025 2.16247 11.3137 2.26972 11.6872 2.44072C12.4342 2.78347 13.428 3.38272 14.46 4.41397C15.492 5.44597 16.0912 6.44047 16.434 7.18747C16.605 7.56097 16.7115 7.87147 16.7767 8.09497C16.8096 8.20727 16.8379 8.32087 16.8615 8.43547L16.8652 8.45872C16.8899 8.60725 16.8553 8.75953 16.7687 8.88272C16.6821 9.00591 16.5506 9.09013 16.4025 9.11722C16.2556 9.14107 16.1053 9.10576 15.9844 9.01904C15.8636 8.93231 15.7819 8.80123 15.7575 8.65447C15.7421 8.57159 15.7219 8.48969 15.6967 8.40922C15.6201 8.15165 15.5249 7.89999 15.4117 7.65622C15.1192 7.01872 14.5927 6.13822 13.6642 5.20972C12.7365 4.28122 11.8552 3.75547 11.2177 3.46297C10.9742 3.34989 10.7228 3.25464 10.4655 3.17797C10.3866 3.15571 10.307 3.1357 10.227 3.11797C10.0795 3.09362 9.94756 3.01225 9.85958 2.89143C9.77159 2.77062 9.73466 2.62004 9.75674 2.47222H9.75749Z" fill="#1B4CFB"/>
<path fill-rule="evenodd" clip-rule="evenodd" d="M9.92701 5.05992C9.94724 4.98885 9.98126 4.92246 10.0272 4.86454C10.073 4.80663 10.1299 4.75832 10.1945 4.72238C10.259 4.68644 10.33 4.66357 10.4034 4.65509C10.4768 4.6466 10.5512 4.65266 10.6223 4.67292L10.4678 5.21367L10.623 4.67367H10.6245L10.6275 4.67442L10.6328 4.67592L10.6478 4.68117C10.7069 4.70099 10.7652 4.72326 10.8225 4.74792C10.932 4.79442 11.0813 4.86642 11.265 4.97517C11.6325 5.19267 12.1328 5.55267 12.7215 6.14217C13.3103 6.73092 13.6718 7.23192 13.8885 7.59867C13.9973 7.78242 14.0693 7.93167 14.1165 8.04117C14.1412 8.09846 14.1635 8.15676 14.1833 8.21592L14.1878 8.23092L14.1893 8.23692L14.19 8.23917V8.24067L13.65 8.39592L14.1908 8.24142C14.2327 8.38464 14.2161 8.53866 14.1445 8.66961C14.0729 8.80056 13.9522 8.8977 13.809 8.93967C13.6658 8.98164 13.5118 8.965 13.3808 8.89341C13.2499 8.82182 13.1527 8.70114 13.1108 8.55792L13.1085 8.55042C13.0558 8.41981 12.9931 8.29344 12.921 8.17242C12.753 7.88967 12.4515 7.46217 11.9265 6.93717C11.4015 6.41217 10.974 6.11067 10.692 5.94342C10.571 5.87135 10.4446 5.80867 10.314 5.75592L10.3065 5.75292C10.1647 5.71048 10.0453 5.61385 9.97428 5.48399C9.90324 5.35412 9.88626 5.20223 9.92701 5.05992Z" fill="#1B4CFB"/>
</svg>
