<svg width="231" height="156" viewBox="0 0 231 156" fill="none" xmlns="http://www.w3.org/2000/svg">
<path d="M228.164 153.794C228.714 153.75 229.124 153.267 229.08 152.717C229.035 152.166 228.553 151.756 228.002 151.801L228.164 153.794ZM116.063 138.297L116.477 137.387L116.063 138.297ZM14.2043 1.51394C13.7715 1.17084 13.1425 1.24355 12.7994 1.67633L7.20831 8.72895C6.86521 9.16173 6.93792 9.79071 7.3707 10.1338C7.80349 10.4769 8.43246 10.4042 8.77556 9.97142L13.7454 3.70243L20.0144 8.6723C20.4472 9.0154 21.0762 8.9427 21.4193 8.50991C21.7624 8.07713 21.6897 7.44815 21.2569 7.10506L14.2043 1.51394ZM220.958 152.196C220.406 152.219 219.978 152.686 220.001 153.237C220.024 153.789 220.49 154.218 221.042 154.195L220.958 152.196ZM206.757 154.49C207.309 154.49 207.756 154.042 207.756 153.489C207.756 152.937 207.308 152.49 206.755 152.49L206.757 154.49ZM192.539 152.222C191.987 152.201 191.522 152.631 191.501 153.183C191.48 153.734 191.91 154.199 192.462 154.221L192.539 152.222ZM178.21 153.37C178.76 153.415 179.243 153.005 179.288 152.455C179.333 151.904 178.923 151.422 178.372 151.377L178.21 153.37ZM164.255 149.883C163.707 149.811 163.205 150.197 163.133 150.744C163.061 151.292 163.446 151.794 163.994 151.866L164.255 149.883ZM149.871 149.593C150.413 149.697 150.937 149.342 151.042 148.8C151.147 148.258 150.792 147.733 150.249 147.629L149.871 149.593ZM136.443 144.447C135.91 144.302 135.36 144.617 135.215 145.15C135.07 145.682 135.385 146.232 135.918 146.377L136.443 144.447ZM122.273 141.967C122.789 142.163 123.367 141.905 123.564 141.389C123.761 140.873 123.502 140.295 122.986 140.098L122.273 141.967ZM109.827 134.203C109.334 133.955 108.732 134.153 108.484 134.646C108.235 135.139 108.434 135.741 108.927 135.989L109.827 134.203ZM95.9376 128.758C96.4085 129.046 97.0242 128.898 97.3127 128.427C97.6013 127.957 97.4535 127.341 96.9826 127.052L95.9376 128.758ZM84.807 118.859C84.3624 118.532 83.7364 118.626 83.4087 119.071C83.081 119.516 83.1758 120.142 83.6204 120.469L84.807 118.859ZM72.0592 111.151C72.4738 111.516 73.1056 111.476 73.4705 111.061C73.8354 110.647 73.795 110.015 73.3804 109.65L72.0592 111.151ZM62.7773 99.472C62.3957 99.0728 61.7627 99.0584 61.3634 99.44C60.9641 99.8216 60.9498 100.455 61.3314 100.854L62.7773 99.472ZM51.5303 89.6831C51.8767 90.1133 52.5062 90.1812 52.9363 89.8348C53.3665 89.4884 53.4344 88.8589 53.088 88.4287L51.5303 89.6831ZM44.3584 76.6186C44.0485 76.1614 43.4267 76.042 42.9696 76.3518C42.5123 76.6616 42.3929 77.2834 42.7027 77.7406L44.3584 76.6186ZM34.8611 65.1076C35.1336 65.588 35.7439 65.7566 36.2243 65.4841C36.7047 65.2116 36.8732 64.6013 36.6008 64.1209L34.8611 65.1076ZM29.8433 51.0539C29.6085 50.554 29.013 50.3391 28.513 50.5738C28.0131 50.8085 27.7982 51.4041 28.0329 51.904L29.8433 51.0539ZM22.2316 38.2339C22.4281 38.75 23.0058 39.0091 23.5219 38.8126C24.0381 38.6161 24.2972 38.0383 24.1006 37.5222L22.2316 38.2339ZM19.3884 23.5848C19.2316 23.0552 18.6753 22.7529 18.1457 22.9096C17.6161 23.0663 17.3138 23.6227 17.4705 24.1523L19.3884 23.5848ZM13.8453 9.73109C13.9557 10.2722 14.4839 10.6214 15.025 10.511C15.5662 10.4007 15.9154 9.87249 15.805 9.33135L13.8453 9.73109ZM228.083 152.798C228.002 151.801 228.002 151.801 228.002 151.801C228.002 151.801 228.002 151.801 228.002 151.801C228.002 151.801 228.002 151.801 228.002 151.801C228.002 151.801 228.002 151.801 228.001 151.801C228 151.801 227.998 151.801 227.996 151.801C227.991 151.802 227.984 151.802 227.974 151.803C227.955 151.805 227.926 151.807 227.887 151.81C227.809 151.816 227.691 151.825 227.536 151.836C227.226 151.858 226.766 151.89 226.164 151.928C224.962 152.003 223.198 152.102 220.958 152.196L221.042 154.195C223.297 154.1 225.074 154 226.29 153.924C226.897 153.886 227.364 153.853 227.68 153.831C227.838 153.819 227.958 153.81 228.039 153.804C228.08 153.801 228.111 153.799 228.131 153.797C228.142 153.796 228.15 153.795 228.155 153.795C228.158 153.795 228.16 153.795 228.161 153.795C228.162 153.794 228.163 153.794 228.163 153.794C228.163 153.794 228.163 153.794 228.163 153.794C228.163 153.794 228.164 153.794 228.164 153.794C228.164 153.794 228.164 153.794 228.083 152.798ZM206.755 152.49C202.46 152.493 197.671 152.421 192.539 152.222L192.462 154.221C197.622 154.42 202.438 154.493 206.757 154.49L206.755 152.49ZM178.372 151.377C173.779 151.002 169.046 150.513 164.255 149.883L163.994 151.866C168.821 152.501 173.587 152.993 178.21 153.37L178.372 151.377ZM150.249 147.629C145.6 146.732 140.973 145.68 136.443 144.447L135.918 146.377C140.502 147.624 145.178 148.688 149.871 149.593L150.249 147.629ZM122.986 140.098C120.766 139.251 118.593 138.348 116.477 137.387L115.65 139.208C117.806 140.188 120.017 141.106 122.273 141.967L122.986 140.098ZM116.477 137.387C114.211 136.357 111.994 135.295 109.827 134.203L108.927 135.989C111.118 137.094 113.359 138.167 115.65 139.208L116.477 137.387ZM96.9826 127.052C92.7094 124.434 88.6545 121.695 84.807 118.859L83.6204 120.469C87.5131 123.338 91.6152 126.109 95.9376 128.758L96.9826 127.052ZM73.3804 109.65C69.6144 106.336 66.0848 102.933 62.7773 99.472L61.3314 100.854C64.6776 104.355 68.2486 107.798 72.0592 111.151L73.3804 109.65ZM53.088 88.4287C49.9326 84.5102 47.0292 80.5598 44.3584 76.6186L42.7027 77.7406C45.403 81.7252 48.3389 85.72 51.5303 89.6831L53.088 88.4287ZM36.6008 64.1209C34.0789 59.6747 31.8362 55.2983 29.8433 51.0539L28.0329 51.904C30.0464 56.192 32.3125 60.6142 34.8611 65.1076L36.6008 64.1209ZM24.1006 37.5222C22.185 32.4914 20.6357 27.8002 19.3884 23.5848L17.4705 24.1523C18.7311 28.4124 20.2964 33.152 22.2316 38.2339L24.1006 37.5222ZM15.805 9.33135C15.3398 7.05082 15.0319 5.25747 14.8407 4.03725C14.7451 3.42716 14.6787 2.96041 14.6363 2.64772C14.6152 2.49138 14.6 2.37356 14.5902 2.29562C14.5853 2.25665 14.5818 2.22764 14.5795 2.20878C14.5784 2.19934 14.5776 2.19243 14.5771 2.18809C14.5768 2.18592 14.5766 2.18438 14.5765 2.18349C14.5765 2.18304 14.5764 2.18276 14.5764 2.18263C14.5764 2.18257 14.5764 2.18254 14.5764 2.18256C14.5764 2.18258 14.5764 2.18261 14.5764 2.18262C14.5764 2.18267 14.5764 2.18274 13.5831 2.29756C12.5897 2.41239 12.5897 2.41247 12.5897 2.41257C12.5897 2.41261 12.5897 2.41271 12.5897 2.41281C12.5897 2.41299 12.5898 2.41321 12.5898 2.41346C12.5898 2.41398 12.5899 2.41467 12.59 2.41551C12.5902 2.41719 12.5905 2.41951 12.5908 2.42247C12.5915 2.42839 12.5926 2.43689 12.5939 2.44791C12.5965 2.46996 12.6005 2.50219 12.6058 2.54439C12.6163 2.6288 12.6324 2.75318 12.6544 2.91618C12.6986 3.24217 12.767 3.72267 12.8648 4.34688C13.0605 5.59528 13.3737 7.41876 13.8453 9.73109L15.805 9.33135ZM228.244 154.791C229.345 154.702 230.166 153.737 230.077 152.636C229.987 151.535 229.023 150.715 227.922 150.804L228.244 154.791ZM116.063 138.297L116.891 136.477L116.891 136.477L116.063 138.297ZM14.8255 0.730313C13.96 0.0441143 12.702 0.18953 12.0158 1.0551L0.833575 15.1603C0.147377 16.0259 0.292784 17.2839 1.15835 17.9701C2.02391 18.6562 3.28187 18.5108 3.96807 17.6453L13.9078 5.10728L26.4458 15.047C27.3114 15.7332 28.5693 15.5878 29.2555 14.7223C29.9417 13.8567 29.7963 12.5987 28.9308 11.9125L14.8255 0.730313ZM220.916 151.197C219.813 151.243 218.956 152.176 219.002 153.279C219.048 154.383 219.98 155.24 221.084 155.194L220.916 151.197ZM206.757 155.49C207.862 155.489 208.757 154.593 208.756 153.489C208.755 152.384 207.859 151.489 206.755 151.49L206.757 155.49ZM192.577 151.223C191.474 151.18 190.544 152.04 190.502 153.144C190.459 154.248 191.319 155.177 192.423 155.22L192.577 151.223ZM178.129 154.367C179.229 154.457 180.195 153.637 180.285 152.536C180.374 151.435 179.555 150.47 178.454 150.38L178.129 154.367ZM164.385 148.892C163.29 148.748 162.286 149.519 162.142 150.614C161.998 151.709 162.768 152.713 163.864 152.858L164.385 148.892ZM149.681 150.574C150.766 150.784 151.815 150.074 152.024 148.989C152.233 147.905 151.523 146.856 150.439 146.647L149.681 150.574ZM136.705 143.482C135.639 143.192 134.54 143.821 134.25 144.887C133.96 145.953 134.589 147.052 135.655 147.342L136.705 143.482ZM121.917 142.901C122.949 143.295 124.105 142.777 124.499 141.745C124.892 140.713 124.375 139.557 123.343 139.164L121.917 142.901ZM110.277 133.31C109.29 132.813 108.088 133.21 107.591 134.196C107.094 135.183 107.49 136.385 108.477 136.882L110.277 133.31ZM95.4151 129.61C96.3569 130.187 97.5883 129.892 98.1654 128.95C98.7425 128.008 98.4469 126.777 97.5051 126.2L95.4151 129.61ZM85.4003 118.054C84.5111 117.399 83.2591 117.589 82.6037 118.478C81.9484 119.367 82.1379 120.619 83.0271 121.274L85.4003 118.054ZM71.3985 111.902C72.2277 112.632 73.4915 112.551 74.2212 111.722C74.9509 110.893 74.8703 109.629 74.0411 108.899L71.3985 111.902ZM63.5002 98.7811C62.737 97.9826 61.471 97.9539 60.6725 98.7171C59.874 99.4803 59.8453 100.746 60.6084 101.545L63.5002 98.7811ZM50.7514 90.3103C51.4442 91.1706 52.7032 91.3064 53.5635 90.6136C54.4238 89.9209 54.5597 88.6618 53.8669 87.8015L50.7514 90.3103ZM45.1862 76.0576C44.5665 75.1432 43.3229 74.9043 42.4086 75.524C41.4942 76.1436 41.2552 77.3872 41.8749 78.3016L45.1862 76.0576ZM33.9913 65.601C34.5362 66.5617 35.7569 66.8989 36.7176 66.3539C37.6784 65.809 38.0155 64.5883 37.4706 63.6276L33.9913 65.601ZM30.7484 50.6289C30.279 49.6291 29.0878 49.1991 28.088 49.6686C27.0882 50.1381 26.6583 51.3292 27.1277 52.3291L30.7484 50.6289ZM21.297 38.5898C21.6901 39.622 22.8456 40.1402 23.8778 39.7471C24.9101 39.3541 25.4282 38.1986 25.0352 37.1663L21.297 38.5898ZM20.3473 23.301C20.0338 22.2419 18.9212 21.6373 17.862 21.9507C16.8028 22.2641 16.1982 23.3768 16.5116 24.436L20.3473 23.301ZM12.8655 9.93095C13.0863 11.0132 14.1426 11.7116 15.2249 11.4909C16.3072 11.2701 17.0056 10.2138 16.7848 9.13149L12.8655 9.93095ZM228.083 152.798C227.922 150.804 227.922 150.804 227.922 150.804C227.922 150.804 227.922 150.804 227.922 150.804C227.922 150.804 227.922 150.804 227.922 150.804C227.922 150.804 227.921 150.804 227.921 150.804C227.92 150.804 227.919 150.804 227.916 150.805C227.912 150.805 227.905 150.805 227.896 150.806C227.877 150.808 227.849 150.81 227.81 150.813C227.734 150.819 227.618 150.827 227.464 150.838C227.157 150.861 226.7 150.892 226.102 150.93C224.905 151.005 223.149 151.104 220.916 151.197L221.084 155.194C223.346 155.099 225.131 154.999 226.352 154.922C226.963 154.884 227.433 154.851 227.752 154.828C227.912 154.817 228.033 154.807 228.116 154.801C228.157 154.798 228.188 154.795 228.21 154.794C228.221 154.793 228.229 154.792 228.235 154.792C228.237 154.792 228.24 154.791 228.241 154.791C228.242 154.791 228.243 154.791 228.243 154.791C228.244 154.791 228.244 154.791 228.244 154.791C228.244 154.791 228.244 154.791 228.244 154.791C228.244 154.791 228.244 154.791 228.083 152.798ZM206.755 151.49C202.471 151.493 197.695 151.421 192.577 151.223L192.423 155.22C197.598 155.42 202.427 155.493 206.757 155.49L206.755 151.49ZM178.454 150.38C173.875 150.006 169.158 149.52 164.385 148.892L163.864 152.858C168.709 153.495 173.491 153.988 178.129 154.367L178.454 150.38ZM150.439 146.647C145.811 145.755 141.209 144.708 136.705 143.482L135.655 147.342C140.267 148.597 144.968 149.666 149.681 150.574L150.439 146.647ZM123.343 139.164C121.14 138.323 118.986 137.429 116.891 136.477L115.236 140.118C117.412 141.107 119.643 142.033 121.917 142.901L123.343 139.164ZM116.891 136.477C114.637 135.453 112.432 134.396 110.277 133.31L108.477 136.882C110.68 137.993 112.933 139.072 115.236 140.118L116.891 136.477ZM97.5051 126.2C93.2565 123.596 89.2252 120.873 85.4003 118.054L83.0271 121.274C86.9425 124.16 91.0682 126.947 95.4151 129.61L97.5051 126.2ZM74.0411 108.899C70.2972 105.604 66.7884 102.222 63.5002 98.7811L60.6084 101.545C63.974 105.066 67.5657 108.529 71.3985 111.902L74.0411 108.899ZM53.8669 87.8015C50.7294 83.9053 47.8423 79.9771 45.1862 76.0576L41.8749 78.3016C44.5898 82.3079 47.5421 86.3248 50.7514 90.3103L53.8669 87.8015ZM37.4706 63.6276C34.9621 59.2049 32.7312 54.8514 30.7484 50.6289L27.1277 52.3291C29.1515 56.6389 31.4293 61.0839 33.9913 65.601L37.4706 63.6276ZM25.0352 37.1663C23.1292 32.1611 21.588 27.4941 20.3473 23.301L16.5116 24.436C17.7788 28.7186 19.3521 33.4823 21.297 38.5898L25.0352 37.1663ZM16.7848 9.13149C16.3229 6.86685 16.0177 5.08855 15.8287 3.88244C15.7342 3.27941 15.6687 2.81952 15.6273 2.51349C15.6066 2.36048 15.5918 2.24595 15.5825 2.17124C15.5778 2.13388 15.5744 2.10648 15.5724 2.0892C15.5713 2.08056 15.5706 2.07445 15.5702 2.0709C15.57 2.06912 15.5698 2.06798 15.5698 2.06748C15.5697 2.06723 15.5697 2.06715 15.5697 2.06721C15.5697 2.06725 15.5698 2.06733 15.5698 2.06744C15.5698 2.0675 15.5698 2.06761 15.5698 2.06765C15.5698 2.06777 15.5698 2.06791 13.5831 2.29756C11.5963 2.52722 11.5963 2.52737 11.5963 2.52754C11.5963 2.52761 11.5963 2.52779 11.5964 2.52792C11.5964 2.52821 11.5964 2.52852 11.5965 2.52887C11.5966 2.5296 11.5967 2.53047 11.5968 2.5315C11.597 2.53358 11.5973 2.5363 11.5977 2.53966C11.5985 2.54637 11.5996 2.55566 11.6011 2.56749C11.6039 2.59113 11.608 2.62496 11.6135 2.66877C11.6245 2.75642 11.641 2.88408 11.6635 3.0504C11.7085 3.38306 11.778 3.87042 11.8769 4.50169C12.0747 5.7642 12.3906 7.60273 12.8655 9.93095L16.7848 9.13149Z" fill="#1B4CFB"/>
</svg>
