<svg width="220" height="220" viewBox="0 0 220 220" fill="none" xmlns="http://www.w3.org/2000/svg">
<path d="M82.4995 146.667C90.2912 152.442 99.7787 155.834 110 155.834C120.22 155.834 129.708 152.442 137.5 146.667" stroke="#B4C0E9" stroke-width="13.75" stroke-linecap="round"/>
<path d="M137.5 110.001C142.562 110.001 146.666 103.845 146.666 96.251C146.666 88.6571 142.562 82.501 137.5 82.501C132.437 82.501 128.333 88.6571 128.333 96.251C128.333 103.845 132.437 110.001 137.5 110.001Z" fill="#B4C0E9"/>
<path d="M82.4997 110.001C87.5623 110.001 91.6663 103.845 91.6663 96.251C91.6663 88.6571 87.5623 82.501 82.4997 82.501C77.4371 82.501 73.333 88.6571 73.333 96.251C73.333 103.845 77.4371 110.001 82.4997 110.001Z" fill="#B4C0E9"/>
<path d="M201.666 128.334C201.666 162.902 201.666 180.19 190.923 190.924C180.189 201.667 162.901 201.667 128.333 201.667M91.6664 201.667C57.0988 201.667 39.8105 201.667 29.0763 190.924C18.333 180.19 18.333 162.902 18.333 128.334M91.6664 18.334C57.0988 18.334 39.8105 18.334 29.0763 29.0773C18.333 39.8115 18.333 57.0998 18.333 91.6673M128.333 18.334C162.901 18.334 180.189 18.334 190.923 29.0773C201.666 39.8115 201.666 57.0998 201.666 91.6673" stroke="#B4C0E9" stroke-width="13.75" stroke-linecap="round"/>
</svg>
