<svg width="15" height="12" viewBox="0 0 15 12" fill="none" xmlns="http://www.w3.org/2000/svg">
<path d="M1.19854 5.45073C4.90365 3.82796 7.37372 2.75803 8.60876 2.24114C12.1391 0.765113 12.8718 0.508761 13.3503 0.500076C13.4556 0.498379 13.6899 0.524533 13.8428 0.648816C13.9698 0.753633 14.0056 0.895385 14.0235 0.994912C14.0393 1.09434 14.0612 1.32094 14.0433 1.49783C13.8527 3.5183 13.0247 8.42134 12.6038 10.6844C12.427 11.6419 12.0756 11.963 11.7361 11.9943C10.9974 12.0626 10.4375 11.504 9.72267 11.033C8.60478 10.2957 7.97337 9.83687 6.88725 9.11753C5.63236 8.28618 6.44645 7.82918 7.16126 7.08248C7.34791 6.88702 10.6003 3.91321 10.6619 3.64349C10.6698 3.60974 10.6777 3.48396 10.6023 3.41768C10.5288 3.3512 10.4196 3.37396 10.3402 3.39193C10.227 3.41748 8.44197 4.60501 4.9791 6.9543C4.47277 7.30449 4.0141 7.47519 3.6011 7.46621C3.14839 7.45643 2.27473 7.20826 1.62544 6.99623C0.831207 6.73608 0.197804 6.59853 0.2534 6.1567C0.281198 5.9267 0.596907 5.69131 1.19854 5.45073Z" fill="#1B4CFB"/>
</svg>
