<svg width="24" height="24" viewBox="0 0 24 24" fill="none" xmlns="http://www.w3.org/2000/svg">
<g id="Icons">
<path id="Vector" d="M9.67523 2.50746L9.67472 2.50729C9.39494 2.41202 9.09912 2.37282 8.80418 2.3919C8.50924 2.41099 8.22095 2.488 7.95578 2.61854C7.69061 2.74907 7.45376 2.93057 7.25875 3.15266C7.06375 3.37476 6.91441 3.63309 6.81927 3.91292C6.81927 3.91292 6.81927 3.91292 6.81926 3.91292L6.35941 5.2655C6.35938 5.26559 6.35935 5.26568 6.35931 5.26578C6.3593 5.26582 6.35928 5.26587 6.35927 5.26592C6.27312 5.51984 6.12976 5.75057 5.94028 5.9403C5.75069 6.13014 5.51999 6.27384 5.26601 6.3603L5.26582 6.36036L3.91285 6.82035C3.91284 6.82035 3.91283 6.82036 3.91282 6.82036C3.60984 6.92339 3.33232 7.08987 3.09879 7.30868C2.86525 7.5275 2.68109 7.79362 2.55858 8.08928C2.43607 8.38493 2.37805 8.70332 2.38838 9.02319C2.39871 9.343 2.47713 9.65693 2.61841 9.94403C2.61844 9.94407 2.61846 9.94412 2.61848 9.94417L3.25041 11.227L3.25048 11.2272C3.36882 11.4676 3.43036 11.732 3.43036 12C3.43036 12.2679 3.36882 12.5323 3.25048 12.7728L3.25041 12.7729L2.61848 14.0558C2.61846 14.0558 2.61844 14.0559 2.61841 14.0559C2.47713 14.343 2.39871 14.6569 2.38838 14.9768C2.37805 15.2966 2.43607 15.615 2.55858 15.9107C2.68109 16.2063 2.86525 16.4724 3.09879 16.6913C3.33233 16.9101 3.60985 17.0766 3.91285 17.1796L3.91314 17.1797L5.26525 17.6404C5.26535 17.6404 5.26545 17.6405 5.26555 17.6405C5.51937 17.7265 5.75005 17.8696 5.9398 18.0589C6.12962 18.2482 6.27341 18.4787 6.36005 18.7324L6.3603 18.7331L6.82021 20.0868C6.92332 20.3898 7.08987 20.6672 7.30872 20.9007C7.52758 21.1341 7.79371 21.3182 8.08936 21.4406C8.385 21.563 8.70336 21.621 9.02319 21.6106C9.34301 21.6002 9.65694 21.5217 9.94402 21.3804L9.94421 21.3803L11.2271 20.7494C11.2271 20.7493 11.2272 20.7493 11.2272 20.7493C11.4676 20.631 11.732 20.5695 11.9999 20.5695C12.2678 20.5695 12.5321 20.631 12.7725 20.7493C12.7726 20.7493 12.7726 20.7493 12.7727 20.7494L14.0555 21.3803L14.0557 21.3804C14.3428 21.5217 14.6567 21.6002 14.9766 21.6106C15.2964 21.621 15.6147 21.563 15.9104 21.4406C16.206 21.3182 16.4722 21.1341 16.691 20.9007C16.9099 20.6672 17.0764 20.3898 17.1796 20.0868L17.1796 20.0868L17.6404 18.7331C17.6405 18.7331 17.6405 18.733 17.6405 18.733C17.6405 18.7329 17.6405 18.7329 17.6406 18.7328C17.7267 18.4793 17.87 18.2489 18.0592 18.0594C18.2486 17.8698 18.4789 17.7262 18.7324 17.6397L18.733 17.6395L20.0868 17.1796C20.3897 17.0765 20.6671 16.91 20.9006 16.6911C21.134 16.4723 21.3181 16.2061 21.4405 15.9105C21.5629 15.6148 21.6209 15.2965 21.6105 14.9767C21.6001 14.6568 21.5216 14.3429 21.3803 14.0558L21.3802 14.0556L20.7493 12.7728C20.7492 12.7727 20.7492 12.7727 20.7492 12.7726C20.6309 12.5322 20.5694 12.2679 20.5694 12C20.5694 11.732 20.6309 11.4677 20.7492 11.2273C20.7492 11.2273 20.7492 11.2272 20.7493 11.2272L21.3802 9.94431L21.3804 9.94396C21.5219 9.65684 21.6005 9.34284 21.6109 9.02292C21.6214 8.703 21.5634 8.38453 21.441 8.08879C21.3186 7.79304 21.1345 7.52682 20.9009 7.30791C20.6675 7.08904 20.39 6.9225 20.087 6.8194C20.087 6.81937 20.0869 6.81935 20.0868 6.81932L18.733 6.3594L18.7327 6.35927C18.2194 6.18445 17.8147 5.78145 17.6395 5.26592C17.6395 5.26587 17.6395 5.26583 17.6394 5.26578L17.1821 3.92072L17.128 3.77731L17.0642 3.63763C16.8002 3.10541 16.3363 2.69913 15.7737 2.50763C15.209 2.31541 14.5911 2.35529 14.0558 2.61851L9.67523 2.50746ZM9.67523 2.50746C9.76505 2.53793 9.85532 2.5755 9.94517 2.61912C9.94556 2.6193 9.94594 2.61949 9.94633 2.61968L11.2269 3.25051L11.2271 3.25058C11.4675 3.36891 11.7319 3.43046 11.9999 3.43046C12.2679 3.43046 12.5322 3.36891 12.7727 3.25058L12.7728 3.25051L14.0556 2.61863L9.67523 2.50746ZM15.5354 8.32841L15.4688 8.26183L15.1153 8.61545L10.0835 13.6481L8.46337 11.7029C8.3605 11.5747 8.23333 11.468 8.08913 11.389C7.94296 11.3089 7.78225 11.2588 7.61646 11.2417C7.45065 11.2246 7.28311 11.2409 7.12369 11.2895C6.96426 11.3381 6.81617 11.4182 6.68813 11.5249C6.56008 11.6316 6.45467 11.7628 6.37809 11.9109C6.30151 12.0589 6.25532 12.2208 6.24222 12.3869C6.22912 12.5531 6.24939 12.7202 6.30183 12.8784C6.35356 13.0345 6.43557 13.1788 6.54314 13.3031L9.03967 16.299C9.15077 16.4323 9.28843 16.5411 9.44389 16.6184C9.59935 16.6957 9.76919 16.7397 9.94261 16.7477C10.116 16.7557 10.2892 16.7275 10.4511 16.6648C10.613 16.6022 10.7601 16.5066 10.883 16.384L10.8834 16.3835L16.878 10.3889C16.9974 10.2759 17.0934 10.1403 17.1604 9.99001C17.2287 9.83667 17.2654 9.67115 17.2684 9.50331C17.2714 9.33548 17.2405 9.16876 17.1776 9.01312C17.1147 8.85746 17.0212 8.71608 16.9025 8.59738C16.7838 8.47868 16.6424 8.38511 16.4867 8.32224C16.3311 8.25937 16.1644 8.2285 15.9965 8.23146C15.838 8.23425 15.6815 8.26719 15.5354 8.32841Z" fill="#DC5068" stroke="#DC5068"/>
</g>
</svg>
