<svg width="24" height="24" viewBox="0 0 24 24" fill="none" xmlns="http://www.w3.org/2000/svg">
<path d="M9.83588 2.03397C9.94788 2.07197 10.0579 2.11797 10.1649 2.16997L11.4479 2.80197C11.6196 2.8865 11.8085 2.93046 11.9999 2.93046C12.1913 2.93046 12.3801 2.8865 12.5519 2.80197L13.8349 2.16997C14.4892 1.84813 15.2445 1.79933 15.9348 2.0343C16.6251 2.26927 17.1938 2.76877 17.5159 3.42297L17.5899 3.58497L17.6529 3.75197L18.1129 5.10497C18.2379 5.47297 18.5269 5.76097 18.8939 5.88597L20.2479 6.34597C20.6182 6.47198 20.9575 6.67557 21.2429 6.94313C21.5283 7.21069 21.7533 7.53607 21.903 7.89754C22.0526 8.25901 22.1234 8.64824 22.1106 9.03925C22.0979 9.43026 22.0018 9.81405 21.8289 10.165L21.1979 11.448C21.1134 11.6197 21.0694 11.8086 21.0694 12C21.0694 12.1914 21.1134 12.3802 21.1979 12.552L21.8289 13.835C22.0016 14.1859 22.0976 14.5695 22.1102 14.9604C22.1229 15.3513 22.0521 15.7404 21.9025 16.1018C21.7528 16.4631 21.5279 16.7884 21.2425 17.0559C20.9572 17.3234 20.6181 17.5269 20.2479 17.653L18.8939 18.113C18.7128 18.1748 18.5482 18.2773 18.413 18.4127C18.2778 18.5481 18.1754 18.7128 18.1139 18.894L17.6529 20.248C17.5268 20.6182 17.3233 20.9573 17.0558 21.2426C16.7883 21.528 16.463 21.7529 16.1017 21.9026C15.7403 22.0522 15.3512 22.123 14.9603 22.1103C14.5694 22.0976 14.1858 22.0017 13.8349 21.829L12.5519 21.198C12.3801 21.1134 12.1913 21.0695 11.9999 21.0695C11.8085 21.0695 11.6196 21.1134 11.4479 21.198L10.1649 21.829C9.814 22.0017 9.43031 22.0976 9.03941 22.1103C8.64852 22.123 8.25941 22.0522 7.89806 21.9026C7.53672 21.7529 7.21145 21.528 6.94395 21.2426C6.67646 20.9573 6.47291 20.6182 6.34688 20.248L5.88688 18.894C5.82499 18.7127 5.72229 18.5482 5.5867 18.4129C5.45111 18.2777 5.28626 18.1754 5.10488 18.114L3.75188 17.653C3.38155 17.527 3.04235 17.3236 2.75692 17.0561C2.47149 16.7887 2.24639 16.4634 2.09666 16.1021C1.94693 15.7407 1.87601 15.3516 1.88864 14.9606C1.90127 14.5697 1.99715 14.1859 2.16988 13.835L2.80188 12.552C2.8864 12.3802 2.93036 12.1914 2.93036 12C2.93036 11.8086 2.8864 11.6197 2.80188 11.448L2.16988 10.165C1.99715 9.81403 1.90127 9.43027 1.88864 9.03933C1.87601 8.64838 1.94693 8.25924 2.09666 7.89788C2.24639 7.53652 2.47149 7.21127 2.75692 6.94382C3.04235 6.67638 3.38155 6.4729 3.75188 6.34697L5.10488 5.88697C5.28629 5.82521 5.45108 5.72257 5.5865 5.58698C5.72192 5.45138 5.82435 5.28646 5.88588 5.10497L6.34588 3.75197C6.46216 3.40996 6.64469 3.09421 6.88303 2.82277C7.12137 2.55132 7.41086 2.32949 7.73496 2.16994C8.05905 2.0104 8.41141 1.91628 8.77189 1.89295C9.13237 1.86962 9.49392 1.91754 9.83588 2.03397ZM15.4689 8.96897L10.0499 14.389L8.07588 12.019C8.01372 11.9406 7.93652 11.8755 7.84882 11.8274C7.76112 11.7794 7.66469 11.7493 7.56522 11.7391C7.46574 11.7288 7.36521 11.7386 7.26955 11.7678C7.1739 11.7969 7.08504 11.845 7.00822 11.909C6.93139 11.973 6.86814 12.0517 6.8222 12.1406C6.77625 12.2294 6.74853 12.3265 6.74067 12.4262C6.73282 12.5259 6.74498 12.6262 6.77644 12.7211C6.8079 12.816 6.85803 12.9037 6.92388 12.979L9.42388 15.979C9.49053 16.059 9.57313 16.1243 9.66641 16.1706C9.75968 16.217 9.86159 16.2434 9.96564 16.2482C10.0697 16.253 10.1736 16.2361 10.2707 16.1985C10.3679 16.1609 10.4561 16.1035 10.5299 16.03L16.5299 10.03C16.6036 9.96131 16.6627 9.87851 16.7037 9.78651C16.7447 9.69451 16.7667 9.5952 16.7685 9.49449C16.7702 9.39379 16.7517 9.29376 16.714 9.20037C16.6763 9.10699 16.6201 9.02215 16.5489 8.95093C16.4777 8.87971 16.3929 8.82357 16.2995 8.78585C16.2061 8.74813 16.1061 8.7296 16.0054 8.73138C15.9047 8.73316 15.8053 8.7552 15.7133 8.79619C15.6213 8.83718 15.5385 8.89629 15.4699 8.96997L15.4689 8.96897Z" fill="#DC5068"/>
</svg>
