<svg width="14" height="15" viewBox="0 0 14 15" fill="none" xmlns="http://www.w3.org/2000/svg">
<path d="M11.7827 2.71428C11.1607 2.08919 10.4199 1.59356 9.60342 1.25632C8.78695 0.919083 7.91116 0.746976 7.02714 0.75004C3.32312 0.75004 0.304271 3.75378 0.304271 7.43927C0.304271 8.62052 0.616332 9.76801 1.19975 10.7805L0.25 14.25L3.81156 13.3185C4.79523 13.8518 5.901 14.1353 7.02714 14.1353C10.7312 14.1353 13.75 11.1315 13.75 7.44602C13.75 5.65728 13.0513 3.97653 11.7827 2.71428ZM7.02714 13.0013C6.02312 13.0013 5.03945 12.7313 4.17789 12.225L3.97437 12.1035L1.85779 12.657L2.42085 10.605L2.28518 10.3958C1.72737 9.50947 1.43118 8.48501 1.4304 7.43927C1.4304 4.37478 3.94045 1.87729 7.02035 1.87729C8.51281 1.87729 9.91709 2.45779 10.9686 3.51078C11.4892 4.02646 11.9019 4.63983 12.1825 5.31534C12.4632 5.99085 12.6063 6.71507 12.6035 7.44602C12.6171 10.5105 10.107 13.0013 7.02714 13.0013ZM10.0935 8.84327C9.92387 8.76227 9.09623 8.35727 8.94698 8.29652C8.79095 8.24252 8.68241 8.21552 8.56709 8.37752C8.45176 8.54627 8.13291 8.92427 8.03794 9.03227C7.94296 9.14702 7.84121 9.16051 7.67161 9.07277C7.50201 8.99177 6.9593 8.80952 6.32161 8.24252C5.8196 7.79702 5.48719 7.25027 5.38543 7.08152C5.29045 6.91277 5.37186 6.82502 5.46005 6.73727C5.53467 6.66302 5.62965 6.54152 5.71106 6.44702C5.79246 6.35252 5.82638 6.27827 5.88065 6.17027C5.93492 6.05552 5.90779 5.96103 5.86708 5.88003C5.82638 5.79903 5.48719 4.97553 5.35151 4.63803C5.21583 4.31403 5.07337 4.35453 4.97161 4.34778H4.64598C4.53065 4.34778 4.35427 4.38828 4.19824 4.55703C4.04899 4.72578 3.61482 5.13078 3.61482 5.95428C3.61482 6.77777 4.21859 7.57427 4.3 7.68227C4.38141 7.79702 5.48719 9.48452 7.1696 10.2068C7.56985 10.3823 7.88191 10.4835 8.12613 10.5578C8.52638 10.686 8.89271 10.6658 9.18442 10.6253C9.51005 10.578 10.1817 10.2203 10.3173 9.82876C10.4598 9.43727 10.4598 9.10652 10.4123 9.03227C10.3648 8.95802 10.2631 8.92427 10.0935 8.84327Z" fill="#1B4CFB"/>
</svg>
